<?xml version="1.0" encoding="UTF-8" standalone="no"?>
<!DOCTYPE svg PUBLIC "-//W3C//DTD SVG 1.1//EN"
 "http://www.w3.org/Graphics/SVG/1.1/DTD/svg11.dtd">
<!-- Generated by graphviz version 2.44.0 (20200408.0750)
 -->
<!-- Title: G Pages: 1 -->
<svg width="2493pt" height="483pt"
 viewBox="0.00 0.00 2493.16 482.80" xmlns="http://www.w3.org/2000/svg" xmlns:xlink="http://www.w3.org/1999/xlink">
<g id="graph0" class="graph" transform="scale(1 1) rotate(0) translate(4 478.8)">
<title>G</title><style>.edge>path:hover{stroke-width:8}</style>
<polygon fill="white" stroke="transparent" points="-4,4 -4,-478.8 2489.16,-478.8 2489.16,4 -4,4"/>
<!-- Crypto -->
<g id="node1" class="node">
<title>Crypto</title><style>.edge>path:hover{stroke-width:8}</style>
<ellipse fill="#f91010" stroke="black" cx="657.65" cy="-295.38" rx="27.16" ry="18"/>
<text text-anchor="middle" x="657.65" y="-292.88" font-family="Helvetica,sans-Serif" font-size="10.00" fill="#ffffff">Crypto</text>
</g>
<!-- devops_supporting_tools_supporting_encryption -->
<g id="node16" class="node">
<title>devops_supporting_tools_supporting_encryption</title><style>.edge>path:hover{stroke-width:8}</style>
<ellipse fill="#4c6335" stroke="black" cx="807.65" cy="-28.99" rx="90.52" ry="28.98"/>
<text text-anchor="middle" x="807.65" y="-37.49" font-family="Helvetica,sans-Serif" font-size="10.00" fill="#ffffff">devops_supporting_tools.</text>
<text text-anchor="middle" x="807.65" y="-26.49" font-family="Helvetica,sans-Serif" font-size="10.00" fill="#ffffff">supporting.</text>
<text text-anchor="middle" x="807.65" y="-15.49" font-family="Helvetica,sans-Serif" font-size="10.00" fill="#ffffff">encryption</text>
</g>
<!-- Crypto&#45;&gt;devops_supporting_tools_supporting_encryption -->
<g id="edge1" class="edge">
<title>Crypto&#45;&gt;devops_supporting_tools_supporting_encryption</title><style>.edge>path:hover{stroke-width:8}</style>
<path fill="none" stroke="black" d="M641.83,-280.76C614.22,-256.65 560.96,-208.39 569.65,-202.4"/>
</g>
<!-- Crypto_Cipher -->
<g id="node2" class="node">
<title>Crypto_Cipher</title><style>.edge>path:hover{stroke-width:8}</style>
<ellipse fill="#c43131" stroke="black" cx="747.65" cy="-295.38" rx="45.15" ry="18"/>
<text text-anchor="middle" x="747.65" y="-292.88" font-family="Helvetica,sans-Serif" font-size="10.00" fill="#ffffff">Crypto.Cipher</text>
</g>
<!-- Crypto_Cipher&#45;&gt;devops_supporting_tools_supporting_encryption -->
<g id="edge2" class="edge">
<title>Crypto_Cipher&#45;&gt;devops_supporting_tools_supporting_encryption</title><style>.edge>path:hover{stroke-width:8}</style>
<path fill="none" stroke="black" d="M722.47,-280.35C713.51,-275.62 703.26,-270.5 693.65,-266.39 648.29,-246.99 627.85,-260.34 588.65,-230.39 576.7,-221.26 557.27,-210.94 569.65,-202.4"/>
</g>
<!-- Crypto_Cipher_AES -->
<g id="node3" class="node">
<title>Crypto_Cipher_AES</title><style>.edge>path:hover{stroke-width:8}</style>
<ellipse fill="#a44646" stroke="black" cx="34.65" cy="-295.38" rx="34.8" ry="28.98"/>
<text text-anchor="middle" x="34.65" y="-303.88" font-family="Helvetica,sans-Serif" font-size="10.00" fill="#ffffff">Crypto.</text>
<text text-anchor="middle" x="34.65" y="-292.88" font-family="Helvetica,sans-Serif" font-size="10.00" fill="#ffffff">Cipher.</text>
<text text-anchor="middle" x="34.65" y="-281.88" font-family="Helvetica,sans-Serif" font-size="10.00" fill="#ffffff">AES</text>
</g>
<!-- Crypto_Cipher_AES&#45;&gt;devops_supporting_tools_supporting_encryption -->
<g id="edge3" class="edge">
<title>Crypto_Cipher_AES&#45;&gt;devops_supporting_tools_supporting_encryption</title><style>.edge>path:hover{stroke-width:8}</style>
<path fill="none" stroke="black" d="M807.65,-114.2C812.84,-99.81 813.79,-83.12 813.09,-68.41"/>
<polygon fill="#a44646" stroke="black" points="816.56,-67.83 812.33,-58.12 809.58,-68.34 816.56,-67.83"/>
<path fill="none" stroke="black" d="M60.19,-275.52C66.02,-271.98 72.35,-268.68 78.65,-266.39 285.52,-191.33 388.49,-327.35 569.65,-202.4"/>
<path fill="none" stroke="black" d="M569.65,-200.4C582.03,-191.86 576.35,-181.06 588.65,-172.41 670.85,-114.61 773.55,-210.72 807.65,-116.2"/>
</g>
<!-- Crypto_Cipher_PKCS1_OAEP -->
<g id="node4" class="node">
<title>Crypto_Cipher_PKCS1_OAEP</title><style>.edge>path:hover{stroke-width:8}</style>
<ellipse fill="#a44646" stroke="black" cx="343.65" cy="-295.38" rx="58.88" ry="28.98"/>
<text text-anchor="middle" x="343.65" y="-303.88" font-family="Helvetica,sans-Serif" font-size="10.00" fill="#ffffff">Crypto.</text>
<text text-anchor="middle" x="343.65" y="-292.88" font-family="Helvetica,sans-Serif" font-size="10.00" fill="#ffffff">Cipher.</text>
<text text-anchor="middle" x="343.65" y="-281.88" font-family="Helvetica,sans-Serif" font-size="10.00" fill="#ffffff">PKCS1_OAEP</text>
</g>
<!-- Crypto_Cipher_PKCS1_OAEP&#45;&gt;devops_supporting_tools_supporting_encryption -->
<g id="edge4" class="edge">
<title>Crypto_Cipher_PKCS1_OAEP&#45;&gt;devops_supporting_tools_supporting_encryption</title><style>.edge>path:hover{stroke-width:8}</style>
<path fill="none" stroke="black" d="M387.89,-276.13C395.8,-272.88 403.97,-269.53 411.65,-266.39 481.79,-237.75 507.28,-245.42 569.65,-202.4"/>
</g>
<!-- Crypto_Hash -->
<g id="node5" class="node">
<title>Crypto_Hash</title><style>.edge>path:hover{stroke-width:8}</style>
<ellipse fill="#c24747" stroke="black" cx="795.65" cy="-456.8" rx="42.27" ry="18"/>
<text text-anchor="middle" x="795.65" y="-454.3" font-family="Helvetica,sans-Serif" font-size="10.00" fill="#ffffff">Crypto.Hash</text>
</g>
<!-- Crypto_Hash&#45;&gt;Crypto_Cipher_PKCS1_OAEP -->
<g id="edge5" class="edge">
<title>Crypto_Hash&#45;&gt;Crypto_Cipher_PKCS1_OAEP</title><style>.edge>path:hover{stroke-width:8}</style>
<path fill="none" stroke="black" d="M820.65,-380.59C780.62,-298.04 500.22,-348.27 411.65,-324.37 406.33,-322.94 400.88,-321.2 395.48,-319.28"/>
<polygon fill="#c24747" stroke="black" points="396.47,-315.92 385.88,-315.7 394.02,-322.47 396.47,-315.92"/>
<path fill="none" stroke="black" d="M808.49,-439.35C818.65,-424.21 829.73,-401.32 820.65,-382.59"/>
</g>
<!-- Crypto_Hash&#45;&gt;devops_supporting_tools_supporting_encryption -->
<g id="edge6" class="edge">
<title>Crypto_Hash&#45;&gt;devops_supporting_tools_supporting_encryption</title><style>.edge>path:hover{stroke-width:8}</style>
<path fill="none" stroke="black" d="M820.65,-380.59C804.32,-346.91 830.05,-332.61 820.65,-296.38"/>
</g>
<!-- Crypto_Hash_SHA256 -->
<g id="node6" class="node">
<title>Crypto_Hash_SHA256</title><style>.edge>path:hover{stroke-width:8}</style>
<ellipse fill="#b34c4c" stroke="black" cx="124.65" cy="-295.38" rx="37.45" ry="28.98"/>
<text text-anchor="middle" x="124.65" y="-303.88" font-family="Helvetica,sans-Serif" font-size="10.00" fill="#ffffff">Crypto.</text>
<text text-anchor="middle" x="124.65" y="-292.88" font-family="Helvetica,sans-Serif" font-size="10.00" fill="#ffffff">Hash.</text>
<text text-anchor="middle" x="124.65" y="-281.88" font-family="Helvetica,sans-Serif" font-size="10.00" fill="#ffffff">SHA256</text>
</g>
<!-- Crypto_Hash_SHA256&#45;&gt;devops_supporting_tools_supporting_encryption -->
<g id="edge7" class="edge">
<title>Crypto_Hash_SHA256&#45;&gt;devops_supporting_tools_supporting_encryption</title><style>.edge>path:hover{stroke-width:8}</style>
<path fill="none" stroke="black" d="M152.37,-275.55C158.51,-272.05 165.13,-268.76 171.65,-266.39 340.05,-205.25 422.16,-304.12 569.65,-202.4"/>
</g>
<!-- Crypto_PublicKey -->
<g id="node7" class="node">
<title>Crypto_PublicKey</title><style>.edge>path:hover{stroke-width:8}</style>
<ellipse fill="#c04040" stroke="black" cx="223.65" cy="-295.38" rx="43.27" ry="21.43"/>
<text text-anchor="middle" x="223.65" y="-298.38" font-family="Helvetica,sans-Serif" font-size="10.00" fill="#ffffff">Crypto.</text>
<text text-anchor="middle" x="223.65" y="-287.38" font-family="Helvetica,sans-Serif" font-size="10.00" fill="#ffffff">PublicKey</text>
</g>
<!-- Crypto_PublicKey&#45;&gt;devops_supporting_tools_supporting_encryption -->
<g id="edge8" class="edge">
<title>Crypto_PublicKey&#45;&gt;devops_supporting_tools_supporting_encryption</title><style>.edge>path:hover{stroke-width:8}</style>
<path fill="none" stroke="black" d="M249.97,-278.37C258,-274 266.99,-269.59 275.65,-266.39 401.08,-220.03 459.57,-278.33 569.65,-202.4"/>
</g>
<!-- Crypto_PublicKey_RSA -->
<g id="node8" class="node">
<title>Crypto_PublicKey_RSA</title><style>.edge>path:hover{stroke-width:8}</style>
<ellipse fill="#a44646" stroke="black" cx="464.65" cy="-295.38" rx="43.68" ry="28.98"/>
<text text-anchor="middle" x="464.65" y="-303.88" font-family="Helvetica,sans-Serif" font-size="10.00" fill="#ffffff">Crypto.</text>
<text text-anchor="middle" x="464.65" y="-292.88" font-family="Helvetica,sans-Serif" font-size="10.00" fill="#ffffff">PublicKey.</text>
<text text-anchor="middle" x="464.65" y="-281.88" font-family="Helvetica,sans-Serif" font-size="10.00" fill="#ffffff">RSA</text>
</g>
<!-- Crypto_PublicKey_RSA&#45;&gt;devops_supporting_tools_supporting_encryption -->
<g id="edge9" class="edge">
<title>Crypto_PublicKey_RSA&#45;&gt;devops_supporting_tools_supporting_encryption</title><style>.edge>path:hover{stroke-width:8}</style>
<path fill="none" stroke="black" d="M488.35,-270.75C508.82,-251.07 539.72,-223.04 569.65,-202.4"/>
</g>
<!-- Crypto_Random -->
<g id="node9" class="node">
<title>Crypto_Random</title><style>.edge>path:hover{stroke-width:8}</style>
<ellipse fill="#db2f2f" stroke="black" cx="562.65" cy="-456.8" rx="50.75" ry="18"/>
<text text-anchor="middle" x="562.65" y="-454.3" font-family="Helvetica,sans-Serif" font-size="10.00" fill="#ffffff">Crypto.Random</text>
</g>
<!-- Crypto_Random&#45;&gt;Crypto_Cipher_AES -->
<g id="edge10" class="edge">
<title>Crypto_Random&#45;&gt;Crypto_Cipher_AES</title><style>.edge>path:hover{stroke-width:8}</style>
<path fill="none" stroke="black" d="M562.65,-380.59C508.86,-286.61 180.69,-360.6 78.65,-324.37 75.39,-323.22 72.13,-321.79 68.94,-320.18"/>
<polygon fill="#db2f2f" stroke="black" points="70.61,-317.11 60.17,-315.31 67.21,-323.23 70.61,-317.11"/>
<path fill="none" stroke="black" d="M567.22,-438.59C570.37,-422.92 572.43,-399.69 562.65,-382.59"/>
</g>
<!-- Crypto_Random&#45;&gt;Crypto_Cipher_PKCS1_OAEP -->
<g id="edge11" class="edge">
<title>Crypto_Random&#45;&gt;Crypto_Cipher_PKCS1_OAEP</title><style>.edge>path:hover{stroke-width:8}</style>
<path fill="none" stroke="black" d="M562.65,-380.59C527.08,-318.44 478.32,-350.5 411.65,-324.37 406.94,-322.53 402.06,-320.59 397.18,-318.62"/>
<polygon fill="#db2f2f" stroke="black" points="398.4,-315.34 387.82,-314.82 395.77,-321.82 398.4,-315.34"/>
</g>
<!-- Crypto_Random&#45;&gt;Crypto_PublicKey_RSA -->
<g id="edge12" class="edge">
<title>Crypto_Random&#45;&gt;Crypto_PublicKey_RSA</title><style>.edge>path:hover{stroke-width:8}</style>
<path fill="none" stroke="black" d="M562.65,-380.59C548.84,-356.46 525.43,-335.96 504.96,-321.23"/>
<polygon fill="#db2f2f" stroke="black" points="506.9,-318.32 496.7,-315.48 502.9,-324.06 506.9,-318.32"/>
</g>
<!-- Crypto_Random&#45;&gt;devops_supporting_tools_supporting_encryption -->
<g id="edge13" class="edge">
<title>Crypto_Random&#45;&gt;devops_supporting_tools_supporting_encryption</title><style>.edge>path:hover{stroke-width:8}</style>
<path fill="none" stroke="black" d="M820.65,-294.38C790.82,-179.38 471.84,-269.86 569.65,-202.4"/>
<path fill="none" stroke="black" d="M562.65,-380.59C502.73,-275.9 850.94,-413.14 820.65,-296.38"/>
</g>
<!-- base64 -->
<g id="node10" class="node">
<title>base64</title><style>.edge>path:hover{stroke-width:8}</style>
<ellipse fill="#c28547" stroke="black" cx="884.65" cy="-456.8" rx="28.01" ry="18"/>
<text text-anchor="middle" x="884.65" y="-454.3" font-family="Helvetica,sans-Serif" font-size="10.00" fill="#000000">base64</text>
</g>
<!-- cryptography_fernet -->
<g id="node12" class="node">
<title>cryptography_fernet</title><style>.edge>path:hover{stroke-width:8}</style>
<ellipse fill="#acac49" stroke="black" cx="900.65" cy="-295.38" rx="52.15" ry="21.43"/>
<text text-anchor="middle" x="900.65" y="-298.38" font-family="Helvetica,sans-Serif" font-size="10.00" fill="#000000">cryptography.</text>
<text text-anchor="middle" x="900.65" y="-287.38" font-family="Helvetica,sans-Serif" font-size="10.00" fill="#000000">fernet</text>
</g>
<!-- base64&#45;&gt;cryptography_fernet -->
<g id="edge14" class="edge">
<title>base64&#45;&gt;cryptography_fernet</title><style>.edge>path:hover{stroke-width:8}</style>
<path fill="none" stroke="black" d="M858.65,-380.59C855.48,-360.3 865.55,-339.63 876.63,-323.84"/>
<polygon fill="#c28547" stroke="black" points="879.6,-325.71 882.8,-315.61 874,-321.51 879.6,-325.71"/>
</g>
<!-- base64&#45;&gt;devops_supporting_tools_supporting_encryption -->
<g id="edge15" class="edge">
<title>base64&#45;&gt;devops_supporting_tools_supporting_encryption</title><style>.edge>path:hover{stroke-width:8}</style>
<path fill="none" stroke="black" d="M858.65,-380.59C852.32,-340.02 830.96,-336.13 820.65,-296.38"/>
<path fill="none" stroke="black" d="M876.83,-439.4C870.38,-424.86 861.81,-402.84 858.65,-382.59"/>
</g>
<!-- cryptography -->
<g id="node11" class="node">
<title>cryptography</title><style>.edge>path:hover{stroke-width:8}</style>
<ellipse fill="#cccc33" stroke="black" cx="569.65" cy="-295.38" rx="42.94" ry="18"/>
<text text-anchor="middle" x="569.65" y="-292.88" font-family="Helvetica,sans-Serif" font-size="10.00" fill="#000000">cryptography</text>
</g>
<!-- cryptography&#45;&gt;devops_supporting_tools_supporting_encryption -->
<g id="edge16" class="edge">
<title>cryptography&#45;&gt;devops_supporting_tools_supporting_encryption</title><style>.edge>path:hover{stroke-width:8}</style>
<path fill="none" stroke="black" d="M562.74,-277.35C555.09,-255.42 546.64,-218.27 569.65,-202.4"/>
</g>
<!-- cryptography_fernet&#45;&gt;devops_supporting_tools_supporting_encryption -->
<g id="edge17" class="edge">
<title>cryptography_fernet&#45;&gt;devops_supporting_tools_supporting_encryption</title><style>.edge>path:hover{stroke-width:8}</style>
<path fill="none" stroke="black" d="M868.01,-278.59C857.55,-274.06 845.79,-269.52 834.65,-266.39 717.98,-233.7 469.91,-271.19 569.65,-202.4"/>
</g>
<!-- devops_supporting_tools_supporting -->
<g id="node13" class="node">
<title>devops_supporting_tools_supporting</title><style>.edge>path:hover{stroke-width:8}</style>
<ellipse fill="#759952" stroke="black" cx="1901.65" cy="-115.2" rx="90.52" ry="21.43"/>
<text text-anchor="middle" x="1901.65" y="-118.2" font-family="Helvetica,sans-Serif" font-size="10.00" fill="#000000">devops_supporting_tools.</text>
<text text-anchor="middle" x="1901.65" y="-107.2" font-family="Helvetica,sans-Serif" font-size="10.00" fill="#000000">supporting</text>
</g>
<!-- devops_supporting_tools_supporting_artifactHandling -->
<g id="node14" class="node">
<title>devops_supporting_tools_supporting_artifactHandling</title><style>.edge>path:hover{stroke-width:8}</style>
<ellipse fill="#70924e" stroke="black" cx="1797.65" cy="-28.99" rx="90.52" ry="28.98"/>
<text text-anchor="middle" x="1797.65" y="-37.49" font-family="Helvetica,sans-Serif" font-size="10.00" fill="#000000">devops_supporting_tools.</text>
<text text-anchor="middle" x="1797.65" y="-26.49" font-family="Helvetica,sans-Serif" font-size="10.00" fill="#000000">supporting.</text>
<text text-anchor="middle" x="1797.65" y="-15.49" font-family="Helvetica,sans-Serif" font-size="10.00" fill="#000000">artifactHandling</text>
</g>
<!-- devops_supporting_tools_supporting_deploylist -->
<g id="node15" class="node">
<title>devops_supporting_tools_supporting_deploylist</title><style>.edge>path:hover{stroke-width:8}</style>
<ellipse fill="#759952" stroke="black" cx="2195.65" cy="-28.99" rx="90.52" ry="28.98"/>
<text text-anchor="middle" x="2195.65" y="-37.49" font-family="Helvetica,sans-Serif" font-size="10.00" fill="#000000">devops_supporting_tools.</text>
<text text-anchor="middle" x="2195.65" y="-26.49" font-family="Helvetica,sans-Serif" font-size="10.00" fill="#000000">supporting.</text>
<text text-anchor="middle" x="2195.65" y="-15.49" font-family="Helvetica,sans-Serif" font-size="10.00" fill="#000000">deploylist</text>
</g>
<!-- devops_supporting_tools_supporting_errorcodes -->
<g id="node17" class="node">
<title>devops_supporting_tools_supporting_errorcodes</title><style>.edge>path:hover{stroke-width:8}</style>
<ellipse fill="#759952" stroke="black" cx="2394.65" cy="-28.99" rx="90.52" ry="28.98"/>
<text text-anchor="middle" x="2394.65" y="-37.49" font-family="Helvetica,sans-Serif" font-size="10.00" fill="#000000">devops_supporting_tools.</text>
<text text-anchor="middle" x="2394.65" y="-26.49" font-family="Helvetica,sans-Serif" font-size="10.00" fill="#000000">supporting.</text>
<text text-anchor="middle" x="2394.65" y="-15.49" font-family="Helvetica,sans-Serif" font-size="10.00" fill="#000000">errorcodes</text>
</g>
<!-- devops_supporting_tools_supporting_executeCommand -->
<g id="node18" class="node">
<title>devops_supporting_tools_supporting_executeCommand</title><style>.edge>path:hover{stroke-width:8}</style>
<ellipse fill="#6b8b4b" stroke="black" cx="1598.65" cy="-28.99" rx="90.52" ry="28.98"/>
<text text-anchor="middle" x="1598.65" y="-37.49" font-family="Helvetica,sans-Serif" font-size="10.00" fill="#ffffff">devops_supporting_tools.</text>
<text text-anchor="middle" x="1598.65" y="-26.49" font-family="Helvetica,sans-Serif" font-size="10.00" fill="#ffffff">supporting.</text>
<text text-anchor="middle" x="1598.65" y="-15.49" font-family="Helvetica,sans-Serif" font-size="10.00" fill="#ffffff">executeCommand</text>
</g>
<!-- devops_supporting_tools_supporting_filehandling -->
<g id="node19" class="node">
<title>devops_supporting_tools_supporting_filehandling</title><style>.edge>path:hover{stroke-width:8}</style>
<ellipse fill="#70924e" stroke="black" cx="1200.65" cy="-28.99" rx="90.52" ry="28.98"/>
<text text-anchor="middle" x="1200.65" y="-37.49" font-family="Helvetica,sans-Serif" font-size="10.00" fill="#000000">devops_supporting_tools.</text>
<text text-anchor="middle" x="1200.65" y="-26.49" font-family="Helvetica,sans-Serif" font-size="10.00" fill="#000000">supporting.</text>
<text text-anchor="middle" x="1200.65" y="-15.49" font-family="Helvetica,sans-Serif" font-size="10.00" fill="#000000">filehandling</text>
</g>
<!-- devops_supporting_tools_supporting_generalSettings -->
<g id="node20" class="node">
<title>devops_supporting_tools_supporting_generalSettings</title><style>.edge>path:hover{stroke-width:8}</style>
<ellipse fill="#759952" stroke="black" cx="1996.65" cy="-28.99" rx="90.52" ry="28.98"/>
<text text-anchor="middle" x="1996.65" y="-37.49" font-family="Helvetica,sans-Serif" font-size="10.00" fill="#000000">devops_supporting_tools.</text>
<text text-anchor="middle" x="1996.65" y="-26.49" font-family="Helvetica,sans-Serif" font-size="10.00" fill="#000000">supporting.</text>
<text text-anchor="middle" x="1996.65" y="-15.49" font-family="Helvetica,sans-Serif" font-size="10.00" fill="#000000">generalSettings</text>
</g>
<!-- devops_supporting_tools_supporting_generatezip -->
<g id="node21" class="node">
<title>devops_supporting_tools_supporting_generatezip</title><style>.edge>path:hover{stroke-width:8}</style>
<ellipse fill="#6b8b4b" stroke="black" cx="1399.65" cy="-28.99" rx="90.52" ry="28.98"/>
<text text-anchor="middle" x="1399.65" y="-37.49" font-family="Helvetica,sans-Serif" font-size="10.00" fill="#ffffff">devops_supporting_tools.</text>
<text text-anchor="middle" x="1399.65" y="-26.49" font-family="Helvetica,sans-Serif" font-size="10.00" fill="#ffffff">supporting.</text>
<text text-anchor="middle" x="1399.65" y="-15.49" font-family="Helvetica,sans-Serif" font-size="10.00" fill="#ffffff">generatezip</text>
</g>
<!-- devops_supporting_tools_supporting_randomize -->
<g id="node22" class="node">
<title>devops_supporting_tools_supporting_randomize</title><style>.edge>path:hover{stroke-width:8}</style>
<ellipse fill="#80a659" stroke="black" cx="688.65" cy="-201.4" rx="90.52" ry="28.98"/>
<text text-anchor="middle" x="688.65" y="-209.9" font-family="Helvetica,sans-Serif" font-size="10.00" fill="#000000">devops_supporting_tools.</text>
<text text-anchor="middle" x="688.65" y="-198.9" font-family="Helvetica,sans-Serif" font-size="10.00" fill="#000000">supporting.</text>
<text text-anchor="middle" x="688.65" y="-187.9" font-family="Helvetica,sans-Serif" font-size="10.00" fill="#000000">randomize</text>
</g>
<!-- logging -->
<g id="node23" class="node">
<title>logging</title><style>.edge>path:hover{stroke-width:8}</style>
<ellipse fill="#10f910" stroke="black" cx="2014.65" cy="-456.8" rx="27.84" ry="18"/>
<text text-anchor="middle" x="2014.65" y="-454.3" font-family="Helvetica,sans-Serif" font-size="10.00" fill="#000000">logging</text>
</g>
<!-- logging&#45;&gt;devops_supporting_tools_supporting -->
<g id="edge18" class="edge">
<title>logging&#45;&gt;devops_supporting_tools_supporting</title><style>.edge>path:hover{stroke-width:8}</style>
<path fill="none" stroke="black" d="M2013.94,-438.62C2013.5,-423.76 2013.25,-401.73 2014.65,-382.59"/>
<path fill="none" stroke="black" d="M2014.65,-380.59C2017.2,-345.73 1977.11,-354.65 1959.65,-324.37 1926.3,-266.55 1911.29,-188.54 1905.24,-146.34"/>
<polygon fill="#10f910" stroke="black" points="1908.7,-145.85 1903.88,-136.42 1901.77,-146.8 1908.7,-145.85"/>
</g>
<!-- logging&#45;&gt;devops_supporting_tools_supporting_artifactHandling -->
<g id="edge19" class="edge">
<title>logging&#45;&gt;devops_supporting_tools_supporting_artifactHandling</title><style>.edge>path:hover{stroke-width:8}</style>
<path fill="none" stroke="black" d="M2014.65,-380.59C2017.59,-345.76 2056.45,-356.74 2069.65,-324.37 2108.76,-228.47 2111.81,-163.08 2034.65,-93.98 1987.43,-51.7 1957.82,-74.61 1896.65,-57.98 1889.13,-55.94 1881.31,-53.78 1873.5,-51.61"/>
<polygon fill="#10f910" stroke="black" points="1874.2,-48.17 1863.63,-48.85 1872.32,-54.91 1874.2,-48.17"/>
</g>
<!-- logging&#45;&gt;devops_supporting_tools_supporting_deploylist -->
<g id="edge20" class="edge">
<title>logging&#45;&gt;devops_supporting_tools_supporting_deploylist</title><style>.edge>path:hover{stroke-width:8}</style>
<path fill="none" stroke="black" d="M2240.65,-200.4C2237.87,-174.84 2219.35,-109.42 2206.95,-67.48"/>
<polygon fill="#10f910" stroke="black" points="2210.3,-66.46 2204.1,-57.87 2203.59,-68.46 2210.3,-66.46"/>
<path fill="none" stroke="black" d="M2240.65,-294.38C2245.48,-253.79 2243.12,-243.21 2240.65,-202.4"/>
</g>
<!-- logging&#45;&gt;devops_supporting_tools_supporting_errorcodes -->
<g id="edge21" class="edge">
<title>logging&#45;&gt;devops_supporting_tools_supporting_errorcodes</title><style>.edge>path:hover{stroke-width:8}</style>
<path fill="none" stroke="black" d="M2240.65,-200.4C2238.38,-163.04 2210.06,-137.76 2240.65,-116.2"/>
</g>
<!-- logging&#45;&gt;devops_supporting_tools_supporting_executeCommand -->
<g id="edge22" class="edge">
<title>logging&#45;&gt;devops_supporting_tools_supporting_executeCommand</title><style>.edge>path:hover{stroke-width:8}</style>
<path fill="none" stroke="black" d="M1594.65,-380.59C1556.22,-346.37 1588.93,-311.52 1613.65,-266.39 1634.05,-229.13 1675.24,-243.83 1684.65,-202.4"/>
<path fill="none" stroke="black" d="M1684.65,-200.4C1695.07,-153.05 1683.71,-136.63 1660.65,-93.98 1654.73,-83.03 1646.4,-72.64 1637.77,-63.55"/>
<polygon fill="#10f910" stroke="black" points="1640.03,-60.85 1630.49,-56.22 1635.06,-65.78 1640.03,-60.85"/>
</g>
<!-- logging&#45;&gt;devops_supporting_tools_supporting_generalSettings -->
<g id="edge23" class="edge">
<title>logging&#45;&gt;devops_supporting_tools_supporting_generalSettings</title><style>.edge>path:hover{stroke-width:8}</style>
<path fill="none" stroke="black" d="M2240.65,-294.38C2224.21,-209.87 2203.48,-193.04 2164.65,-116.2"/>
<path fill="none" stroke="black" d="M2042.05,-453.46C2077.99,-449.09 2141.33,-436.82 2182.65,-402.8 2224.24,-368.57 2245.18,-350.06 2240.65,-296.38"/>
</g>
<!-- logging&#45;&gt;devops_supporting_tools_supporting_generatezip -->
<g id="edge24" class="edge">
<title>logging&#45;&gt;devops_supporting_tools_supporting_generatezip</title><style>.edge>path:hover{stroke-width:8}</style>
<path fill="none" stroke="black" d="M1594.65,-380.59C1581.47,-368.76 1466.2,-154.53 1419.33,-66.89"/>
<polygon fill="#10f910" stroke="black" points="1422.29,-65 1414.49,-57.83 1416.12,-68.3 1422.29,-65"/>
</g>
<!-- supporting -->
<g id="node28" class="node">
<title>supporting</title><style>.edge>path:hover{stroke-width:8}</style>
<ellipse fill="#7505e5" stroke="black" cx="1801.65" cy="-295.38" rx="36.49" ry="18"/>
<text text-anchor="middle" x="1801.65" y="-292.88" font-family="Helvetica,sans-Serif" font-size="10.00" fill="#ffffff">supporting</text>
</g>
<!-- logging&#45;&gt;supporting -->
<g id="edge25" class="edge">
<title>logging&#45;&gt;supporting</title><style>.edge>path:hover{stroke-width:8}</style>
<path fill="none" stroke="black" d="M1594.65,-380.59C1538.05,-330.18 1687.12,-356.75 1755.65,-324.37 1761.06,-321.82 1766.65,-318.79 1771.98,-315.68"/>
<polygon fill="#10f910" stroke="black" points="1773.89,-318.62 1780.64,-310.45 1770.27,-312.62 1773.89,-318.62"/>
</g>
<!-- supporting_errorcodes -->
<g id="node30" class="node">
<title>supporting_errorcodes</title><style>.edge>path:hover{stroke-width:8}</style>
<ellipse fill="#7523c8" stroke="black" cx="2014.65" cy="-295.38" rx="45.92" ry="21.43"/>
<text text-anchor="middle" x="2014.65" y="-298.38" font-family="Helvetica,sans-Serif" font-size="10.00" fill="#ffffff">supporting.</text>
<text text-anchor="middle" x="2014.65" y="-287.38" font-family="Helvetica,sans-Serif" font-size="10.00" fill="#ffffff">errorcodes</text>
</g>
<!-- logging&#45;&gt;supporting_errorcodes -->
<g id="edge26" class="edge">
<title>logging&#45;&gt;supporting_errorcodes</title><style>.edge>path:hover{stroke-width:8}</style>
<path fill="none" stroke="black" d="M2014.65,-380.59C2015.94,-362.94 2016.01,-343.15 2015.72,-327.19"/>
<polygon fill="#10f910" stroke="black" points="2019.21,-326.75 2015.48,-316.83 2012.22,-326.91 2019.21,-326.75"/>
</g>
<!-- supporting_generalSettings -->
<g id="node32" class="node">
<title>supporting_generalSettings</title><style>.edge>path:hover{stroke-width:8}</style>
<ellipse fill="#7546a4" stroke="black" cx="1359.65" cy="-295.38" rx="59.29" ry="21.43"/>
<text text-anchor="middle" x="1359.65" y="-298.38" font-family="Helvetica,sans-Serif" font-size="10.00" fill="#ffffff">supporting.</text>
<text text-anchor="middle" x="1359.65" y="-287.38" font-family="Helvetica,sans-Serif" font-size="10.00" fill="#ffffff">generalSettings</text>
</g>
<!-- logging&#45;&gt;supporting_generalSettings -->
<g id="edge27" class="edge">
<title>logging&#45;&gt;supporting_generalSettings</title><style>.edge>path:hover{stroke-width:8}</style>
<path fill="none" stroke="black" d="M1594.65,-380.59C1536.16,-328.51 1501.01,-351.79 1427.65,-324.37 1420.66,-321.76 1413.32,-318.89 1406.15,-316"/>
<polygon fill="#10f910" stroke="black" points="1407.11,-312.61 1396.53,-312.08 1404.47,-319.1 1407.11,-312.61"/>
<path fill="none" stroke="black" d="M1986.88,-454.68C1902.82,-450.73 1653.24,-434.76 1594.65,-382.59"/>
</g>
<!-- pathlib -->
<g id="node24" class="node">
<title>pathlib</title><style>.edge>path:hover{stroke-width:8}</style>
<ellipse fill="#53b685" stroke="black" cx="1463.65" cy="-295.38" rx="27" ry="18"/>
<text text-anchor="middle" x="1463.65" y="-292.88" font-family="Helvetica,sans-Serif" font-size="10.00" fill="#000000">pathlib</text>
</g>
<!-- pathlib&#45;&gt;devops_supporting_tools_supporting_generatezip -->
<g id="edge28" class="edge">
<title>pathlib&#45;&gt;devops_supporting_tools_supporting_generatezip</title><style>.edge>path:hover{stroke-width:8}</style>
<path fill="none" stroke="black" d="M1459.55,-277.44C1449.42,-235.62 1423.04,-126.63 1408.91,-68.24"/>
<polygon fill="#53b685" stroke="black" points="1412.25,-67.19 1406.5,-58.3 1405.45,-68.84 1412.25,-67.19"/>
</g>
<!-- random -->
<g id="node25" class="node">
<title>random</title><style>.edge>path:hover{stroke-width:8}</style>
<ellipse fill="#3bcece" stroke="black" cx="1017.65" cy="-456.8" rx="28.69" ry="18"/>
<text text-anchor="middle" x="1017.65" y="-454.3" font-family="Helvetica,sans-Serif" font-size="10.00" fill="#000000">random</text>
</g>
<!-- random&#45;&gt;devops_supporting_tools_supporting_randomize -->
<g id="edge29" class="edge">
<title>random&#45;&gt;devops_supporting_tools_supporting_randomize</title><style>.edge>path:hover{stroke-width:8}</style>
<path fill="none" stroke="black" d="M1017.65,-380.59C1020.87,-366.83 972.79,-275.09 961.65,-266.39 901.46,-219.39 867.9,-248.23 793.65,-230.39 784.59,-228.22 775.13,-225.84 765.75,-223.42"/>
<polygon fill="#3bcece" stroke="black" points="766.58,-220.02 756.02,-220.89 764.82,-226.79 766.58,-220.02"/>
<path fill="none" stroke="black" d="M1015.5,-438.69C1014.12,-423.69 1013.31,-401.41 1017.65,-382.59"/>
</g>
<!-- supporting_randomize -->
<g id="node34" class="node">
<title>supporting_randomize</title><style>.edge>path:hover{stroke-width:8}</style>
<ellipse fill="#7f4cb3" stroke="black" cx="1054.65" cy="-295.38" rx="45.92" ry="21.43"/>
<text text-anchor="middle" x="1054.65" y="-298.38" font-family="Helvetica,sans-Serif" font-size="10.00" fill="#ffffff">supporting.</text>
<text text-anchor="middle" x="1054.65" y="-287.38" font-family="Helvetica,sans-Serif" font-size="10.00" fill="#ffffff">randomize</text>
</g>
<!-- random&#45;&gt;supporting_randomize -->
<g id="edge30" class="edge">
<title>random&#45;&gt;supporting_randomize</title><style>.edge>path:hover{stroke-width:8}</style>
<path fill="none" stroke="black" d="M1017.65,-380.59C1022.14,-361.4 1030.89,-341.15 1038.76,-325.32"/>
<polygon fill="#3bcece" stroke="black" points="1042.05,-326.57 1043.5,-316.08 1035.82,-323.38 1042.05,-326.57"/>
</g>
<!-- uuid -->
<g id="node35" class="node">
<title>uuid</title><style>.edge>path:hover{stroke-width:8}</style>
<ellipse fill="#a446a4" stroke="black" cx="1145.65" cy="-295.38" rx="27" ry="18"/>
<text text-anchor="middle" x="1145.65" y="-292.88" font-family="Helvetica,sans-Serif" font-size="10.00" fill="#ffffff">uuid</text>
</g>
<!-- random&#45;&gt;uuid -->
<g id="edge31" class="edge">
<title>random&#45;&gt;uuid</title><style>.edge>path:hover{stroke-width:8}</style>
<path fill="none" stroke="black" d="M1017.65,-380.59C1028.56,-333.93 1070.23,-351.62 1109.65,-324.37 1113.41,-321.77 1117.31,-318.92 1121.1,-316.06"/>
<polygon fill="#3bcece" stroke="black" points="1123.32,-318.77 1129.09,-309.88 1119.04,-313.23 1123.32,-318.77"/>
</g>
<!-- shutil -->
<g id="node26" class="node">
<title>shutil</title><style>.edge>path:hover{stroke-width:8}</style>
<ellipse fill="#337fcc" stroke="black" cx="1200.65" cy="-381.59" rx="27" ry="18"/>
<text text-anchor="middle" x="1200.65" y="-379.09" font-family="Helvetica,sans-Serif" font-size="10.00" fill="#ffffff">shutil</text>
</g>
<!-- shutil&#45;&gt;devops_supporting_tools_supporting_filehandling -->
<g id="edge32" class="edge">
<title>shutil&#45;&gt;devops_supporting_tools_supporting_filehandling</title><style>.edge>path:hover{stroke-width:8}</style>
<path fill="none" stroke="black" d="M1196.54,-363.57C1189.53,-330.88 1178.06,-257.67 1200.65,-202.4"/>
</g>
<!-- shutil&#45;&gt;uuid -->
<g id="edge33" class="edge">
<title>shutil&#45;&gt;uuid</title><style>.edge>path:hover{stroke-width:8}</style>
<path fill="none" stroke="black" d="M1190.3,-364.75C1182.24,-352.4 1170.89,-335.03 1161.66,-320.89"/>
<polygon fill="#337fcc" stroke="black" points="1164.35,-318.61 1155.95,-312.15 1158.49,-322.44 1164.35,-318.61"/>
</g>
<!-- zipfile -->
<g id="node36" class="node">
<title>zipfile</title><style>.edge>path:hover{stroke-width:8}</style>
<ellipse fill="#c04080" stroke="black" cx="1255.65" cy="-295.38" rx="27" ry="18"/>
<text text-anchor="middle" x="1255.65" y="-292.88" font-family="Helvetica,sans-Serif" font-size="10.00" fill="#ffffff">zipfile</text>
</g>
<!-- shutil&#45;&gt;zipfile -->
<g id="edge34" class="edge">
<title>shutil&#45;&gt;zipfile</title><style>.edge>path:hover{stroke-width:8}</style>
<path fill="none" stroke="black" d="M1216.71,-356C1224,-344.83 1232.6,-331.66 1239.86,-320.55"/>
<polygon fill="#337fcc" stroke="black" points="1213.53,-354.46 1210.99,-364.75 1219.39,-358.29 1213.53,-354.46"/>
<polygon fill="#337fcc" stroke="black" points="1242.81,-322.44 1245.35,-312.15 1236.95,-318.61 1242.81,-322.44"/>
</g>
<!-- subprocess -->
<g id="node27" class="node">
<title>subprocess</title><style>.edge>path:hover{stroke-width:8}</style>
<ellipse fill="#4747c2" stroke="black" cx="1406.65" cy="-381.59" rx="39.38" ry="18"/>
<text text-anchor="middle" x="1406.65" y="-379.09" font-family="Helvetica,sans-Serif" font-size="10.00" fill="#ffffff">subprocess</text>
</g>
<!-- subprocess&#45;&gt;devops_supporting_tools_supporting_executeCommand -->
<g id="edge35" class="edge">
<title>subprocess&#45;&gt;devops_supporting_tools_supporting_executeCommand</title><style>.edge>path:hover{stroke-width:8}</style>
<path fill="none" stroke="black" d="M1436.02,-369.31C1456.49,-360.07 1483.01,-345.13 1499.65,-324.37 1561.69,-246.98 1585.69,-128.81 1594.28,-68.43"/>
<polygon fill="#4747c2" stroke="black" points="1597.79,-68.57 1595.67,-58.2 1590.86,-67.64 1597.79,-68.57"/>
</g>
<!-- subprocess&#45;&gt;uuid -->
<g id="edge36" class="edge">
<title>subprocess&#45;&gt;uuid</title><style>.edge>path:hover{stroke-width:8}</style>
<path fill="none" stroke="black" d="M1373.66,-371.42C1336.13,-360.82 1273.1,-342.5 1219.65,-324.37 1205.76,-319.67 1190.58,-314.02 1177.61,-309.03"/>
<polygon fill="#4747c2" stroke="black" points="1178.76,-305.72 1168.17,-305.37 1176.23,-312.25 1178.76,-305.72"/>
</g>
<!-- supporting&#45;&gt;devops_supporting_tools_supporting -->
<g id="edge37" class="edge">
<title>supporting&#45;&gt;devops_supporting_tools_supporting</title><style>.edge>path:hover{stroke-width:8}</style>
<path fill="none" stroke="black" d="M1744.65,-200.4C1748.24,-163.38 1783.1,-142.56 1819.06,-130.89"/>
<polygon fill="#7505e5" stroke="black" points="1820.15,-134.22 1828.71,-127.97 1818.12,-127.52 1820.15,-134.22"/>
</g>
<!-- supporting&#45;&gt;devops_supporting_tools_supporting_artifactHandling -->
<g id="edge38" class="edge">
<title>supporting&#45;&gt;devops_supporting_tools_supporting_artifactHandling</title><style>.edge>path:hover{stroke-width:8}</style>
<path fill="none" stroke="black" d="M1744.65,-114.2C1749.51,-96.99 1759.11,-79.93 1768.82,-65.71"/>
<polygon fill="#7505e5" stroke="black" points="1771.89,-67.43 1774.83,-57.25 1766.19,-63.37 1771.89,-67.43"/>
</g>
<!-- supporting&#45;&gt;devops_supporting_tools_supporting_deploylist -->
<g id="edge39" class="edge">
<title>supporting&#45;&gt;devops_supporting_tools_supporting_deploylist</title><style>.edge>path:hover{stroke-width:8}</style>
<path fill="none" stroke="black" d="M2058.65,-114.2C2084.77,-94.09 2115.94,-74.62 2141.95,-59.47"/>
<polygon fill="#7505e5" stroke="black" points="2144,-62.33 2150.91,-54.3 2140.5,-56.27 2144,-62.33"/>
<path fill="none" stroke="black" d="M1823.37,-280.73C1865.2,-254.22 1959.44,-193.33 2034.65,-136.41 2045.77,-127.99 2047.6,-124.7 2058.65,-116.2"/>
</g>
<!-- supporting&#45;&gt;devops_supporting_tools_supporting_errorcodes -->
<g id="edge40" class="edge">
<title>supporting&#45;&gt;devops_supporting_tools_supporting_errorcodes</title><style>.edge>path:hover{stroke-width:8}</style>
<path fill="none" stroke="black" d="M1831.09,-284.73C1863.21,-273.66 1915.65,-253.95 1957.65,-230.39 1995.63,-209.08 1997.26,-190.99 2036.65,-172.41 2121.71,-132.29 2165.26,-172.42 2240.65,-116.2"/>
<path fill="none" stroke="black" d="M2240.65,-114.2C2270.29,-92.75 2306.01,-72.9 2335.58,-57.86"/>
<polygon fill="#7505e5" stroke="black" points="2337.19,-60.97 2344.55,-53.35 2334.04,-54.72 2337.19,-60.97"/>
</g>
<!-- supporting&#45;&gt;devops_supporting_tools_supporting_executeCommand -->
<g id="edge41" class="edge">
<title>supporting&#45;&gt;devops_supporting_tools_supporting_executeCommand</title><style>.edge>path:hover{stroke-width:8}</style>
<path fill="none" stroke="black" d="M1744.65,-114.2C1750.12,-94.87 1707.72,-72.05 1667.23,-55.04"/>
<polygon fill="#7505e5" stroke="black" points="1668.4,-51.74 1657.82,-51.18 1665.74,-58.22 1668.4,-51.74"/>
<path fill="none" stroke="black" d="M1744.65,-200.4C1748.26,-163.15 1734.46,-152.21 1744.65,-116.2"/>
<path fill="none" stroke="black" d="M1784.03,-279.47C1766.2,-262.55 1741.65,-233.25 1744.65,-202.4"/>
</g>
<!-- supporting&#45;&gt;devops_supporting_tools_supporting_filehandling -->
<g id="edge42" class="edge">
<title>supporting&#45;&gt;devops_supporting_tools_supporting_filehandling</title><style>.edge>path:hover{stroke-width:8}</style>
<path fill="none" stroke="black" d="M1780.62,-280.35C1772.95,-275.56 1764.09,-270.41 1755.65,-266.39 1712.62,-245.9 1698.92,-248.03 1654.65,-230.39 1510.81,-173.1 1345.2,-97.5 1259.26,-57.52"/>
<polygon fill="#7505e5" stroke="black" points="1260.73,-54.34 1250.19,-53.29 1257.78,-60.69 1260.73,-54.34"/>
</g>
<!-- supporting&#45;&gt;devops_supporting_tools_supporting_generalSettings -->
<g id="edge43" class="edge">
<title>supporting&#45;&gt;devops_supporting_tools_supporting_generalSettings</title><style>.edge>path:hover{stroke-width:8}</style>
<path fill="none" stroke="black" d="M1744.65,-114.2C1747.2,-105.18 1847.99,-73.7 1921.32,-51.89"/>
<polygon fill="#7505e5" stroke="black" points="1922.42,-55.22 1931.02,-49.02 1920.43,-48.51 1922.42,-55.22"/>
</g>
<!-- supporting&#45;&gt;devops_supporting_tools_supporting_generatezip -->
<g id="edge44" class="edge">
<title>supporting&#45;&gt;devops_supporting_tools_supporting_generatezip</title><style>.edge>path:hover{stroke-width:8}</style>
<path fill="none" stroke="black" d="M1780.49,-280.62C1772.81,-275.86 1763.97,-270.66 1755.65,-266.39 1719.14,-247.68 1696.72,-262.07 1670.65,-230.39 1637.69,-190.35 1693.36,-138.73 1646.65,-116.2"/>
<path fill="none" stroke="black" d="M1646.65,-114.2C1591.38,-88.49 1525.99,-66.55 1476.38,-51.51"/>
<polygon fill="#7505e5" stroke="black" points="1477.26,-48.12 1466.67,-48.6 1475.24,-54.83 1477.26,-48.12"/>
</g>
<!-- supporting_errorcode -->
<g id="node29" class="node">
<title>supporting_errorcode</title><style>.edge>path:hover{stroke-width:8}</style>
<ellipse fill="#8547c2" stroke="black" cx="2127.65" cy="-381.59" rx="45.92" ry="21.43"/>
<text text-anchor="middle" x="2127.65" y="-384.59" font-family="Helvetica,sans-Serif" font-size="10.00" fill="#ffffff">supporting.</text>
<text text-anchor="middle" x="2127.65" y="-373.59" font-family="Helvetica,sans-Serif" font-size="10.00" fill="#ffffff">errorcode</text>
</g>
<!-- supporting_errorcode&#45;&gt;devops_supporting_tools_supporting_errorcodes -->
<g id="edge45" class="edge">
<title>supporting_errorcode&#45;&gt;devops_supporting_tools_supporting_errorcodes</title><style>.edge>path:hover{stroke-width:8}</style>
<path fill="none" stroke="black" d="M2133.4,-360.22C2149.81,-303.64 2198.38,-146.77 2240.65,-116.2"/>
</g>
<!-- supporting_errorcode&#45;&gt;supporting_errorcodes -->
<g id="edge46" class="edge">
<title>supporting_errorcode&#45;&gt;supporting_errorcodes</title><style>.edge>path:hover{stroke-width:8}</style>
<path fill="none" stroke="black" d="M2104.23,-363.14C2087.42,-350.61 2064.56,-333.58 2046.14,-319.85"/>
<polygon fill="#8547c2" stroke="black" points="2048.14,-316.98 2038.03,-313.81 2043.96,-322.59 2048.14,-316.98"/>
</g>
<!-- supporting_errorcodes&#45;&gt;devops_supporting_tools_supporting_artifactHandling -->
<g id="edge47" class="edge">
<title>supporting_errorcodes&#45;&gt;devops_supporting_tools_supporting_artifactHandling</title><style>.edge>path:hover{stroke-width:8}</style>
<path fill="none" stroke="black" d="M2020.65,-114.2C2011.61,-105.8 2012.09,-100.53 2001.65,-93.98 1990.29,-86.86 1926.75,-67.39 1873.56,-51.78"/>
<polygon fill="#7523c8" stroke="black" points="1874.35,-48.36 1863.77,-48.91 1872.38,-55.08 1874.35,-48.36"/>
</g>
<!-- supporting_errorcodes&#45;&gt;devops_supporting_tools_supporting_deploylist -->
<g id="edge48" class="edge">
<title>supporting_errorcodes&#45;&gt;devops_supporting_tools_supporting_deploylist</title><style>.edge>path:hover{stroke-width:8}</style>
<path fill="none" stroke="black" d="M2050.65,-200.4C2055.13,-163.08 2028.86,-139.12 2058.65,-116.2"/>
</g>
<!-- supporting_errorcodes&#45;&gt;devops_supporting_tools_supporting_executeCommand -->
<g id="edge49" class="edge">
<title>supporting_errorcodes&#45;&gt;devops_supporting_tools_supporting_executeCommand</title><style>.edge>path:hover{stroke-width:8}</style>
<path fill="none" stroke="black" d="M2020.65,-114.2C2011.61,-105.8 2012.66,-99.53 2001.65,-93.98 1880.17,-32.72 1831.08,-84.57 1697.65,-57.98 1689.4,-56.34 1680.84,-54.35 1672.36,-52.21"/>
<polygon fill="#7523c8" stroke="black" points="1673.02,-48.76 1662.46,-49.62 1671.25,-55.54 1673.02,-48.76"/>
<path fill="none" stroke="black" d="M2050.65,-200.4C2055.38,-160.96 2049.76,-143.23 2020.65,-116.2"/>
<path fill="none" stroke="black" d="M2025.74,-274.7C2035.11,-256.58 2047.5,-228.62 2050.65,-202.4"/>
</g>
<!-- supporting_errorcodes&#45;&gt;devops_supporting_tools_supporting_generatezip -->
<g id="edge50" class="edge">
<title>supporting_errorcodes&#45;&gt;devops_supporting_tools_supporting_generatezip</title><style>.edge>path:hover{stroke-width:8}</style>
<path fill="none" stroke="black" d="M1996.07,-275.81C1968.31,-249.1 1913.31,-200.02 1857.65,-172.41 1770.71,-129.29 1734.65,-157.12 1646.65,-116.2"/>
</g>
<!-- supporting_generalConstants -->
<g id="node31" class="node">
<title>supporting_generalConstants</title><style>.edge>path:hover{stroke-width:8}</style>
<ellipse fill="#8522e7" stroke="black" cx="1833.65" cy="-381.59" rx="65.52" ry="21.43"/>
<text text-anchor="middle" x="1833.65" y="-384.59" font-family="Helvetica,sans-Serif" font-size="10.00" fill="#ffffff">supporting.</text>
<text text-anchor="middle" x="1833.65" y="-373.59" font-family="Helvetica,sans-Serif" font-size="10.00" fill="#ffffff">generalConstants</text>
</g>
<!-- supporting_generalConstants&#45;&gt;devops_supporting_tools_supporting -->
<g id="edge51" class="edge">
<title>supporting_generalConstants&#45;&gt;devops_supporting_tools_supporting</title><style>.edge>path:hover{stroke-width:8}</style>
<path fill="none" stroke="black" d="M1843.65,-200.4C1840.94,-178.6 1854.4,-158.2 1869.03,-142.94"/>
<polygon fill="#8522e7" stroke="black" points="1871.55,-145.38 1876.25,-135.88 1866.65,-140.37 1871.55,-145.38"/>
</g>
<!-- supporting_generalConstants&#45;&gt;devops_supporting_tools_supporting_artifactHandling -->
<g id="edge52" class="edge">
<title>supporting_generalConstants&#45;&gt;devops_supporting_tools_supporting_artifactHandling</title><style>.edge>path:hover{stroke-width:8}</style>
<path fill="none" stroke="black" d="M1843.65,-200.4C1839.45,-166.64 1812,-168.82 1801.65,-136.41 1794.67,-114.56 1793.51,-88.9 1794.18,-68.25"/>
<polygon fill="#8522e7" stroke="black" points="1797.67,-68.41 1794.65,-58.26 1790.68,-68.08 1797.67,-68.41"/>
<path fill="none" stroke="black" d="M1839.53,-360.22C1842.29,-349.63 1845.27,-336.42 1846.65,-324.37 1852.8,-270.5 1847.99,-256.45 1843.65,-202.4"/>
</g>
<!-- supporting_generalConstants&#45;&gt;devops_supporting_tools_supporting_generalSettings -->
<g id="edge53" class="edge">
<title>supporting_generalConstants&#45;&gt;devops_supporting_tools_supporting_generalSettings</title><style>.edge>path:hover{stroke-width:8}</style>
<path fill="none" stroke="black" d="M1893.12,-372.48C1953.89,-363.16 2043.01,-346.28 2069.65,-324.37 2089.29,-308.22 2173.15,-140.16 2164.65,-116.2"/>
<path fill="none" stroke="black" d="M2164.65,-114.2C2154.56,-94.23 2107.08,-71.49 2065.15,-54.68"/>
<polygon fill="#8522e7" stroke="black" points="2066.34,-51.39 2055.75,-50.97 2063.77,-57.9 2066.34,-51.39"/>
</g>
<!-- supporting_generalConstants&#45;&gt;supporting -->
<g id="edge54" class="edge">
<title>supporting_generalConstants&#45;&gt;supporting</title><style>.edge>path:hover{stroke-width:8}</style>
<path fill="none" stroke="black" d="M1825.9,-360.2C1821.62,-348.95 1816.26,-334.84 1811.67,-322.75"/>
<polygon fill="#8522e7" stroke="black" points="1814.86,-321.29 1808.03,-313.18 1808.31,-323.77 1814.86,-321.29"/>
</g>
<!-- supporting_generalConstants&#45;&gt;supporting_generalSettings -->
<g id="edge55" class="edge">
<title>supporting_generalConstants&#45;&gt;supporting_generalSettings</title><style>.edge>path:hover{stroke-width:8}</style>
<path fill="none" stroke="black" d="M1769.36,-376.72C1688.46,-370.71 1545.8,-356.32 1427.65,-324.37 1419.76,-322.24 1411.57,-319.43 1403.72,-316.4"/>
<polygon fill="#8522e7" stroke="black" points="1404.94,-313.12 1394.35,-312.65 1402.33,-319.62 1404.94,-313.12"/>
</g>
<!-- supporting_generalSettings&#45;&gt;devops_supporting_tools_supporting_filehandling -->
<g id="edge56" class="edge">
<title>supporting_generalSettings&#45;&gt;devops_supporting_tools_supporting_filehandling</title><style>.edge>path:hover{stroke-width:8}</style>
<path fill="none" stroke="black" d="M1347.7,-274.51C1321.1,-230.28 1256.68,-123.16 1222.61,-66.51"/>
<polygon fill="#7546a4" stroke="black" points="1225.57,-64.64 1217.41,-57.87 1219.57,-68.25 1225.57,-64.64"/>
</g>
<!-- supporting_mask_password -->
<g id="node33" class="node">
<title>supporting_mask_password</title><style>.edge>path:hover{stroke-width:8}</style>
<ellipse fill="#8553b6" stroke="black" cx="1684.65" cy="-295.38" rx="62.45" ry="21.43"/>
<text text-anchor="middle" x="1684.65" y="-298.38" font-family="Helvetica,sans-Serif" font-size="10.00" fill="#ffffff">supporting.</text>
<text text-anchor="middle" x="1684.65" y="-287.38" font-family="Helvetica,sans-Serif" font-size="10.00" fill="#ffffff">mask_password</text>
</g>
<!-- supporting_mask_password&#45;&gt;devops_supporting_tools_supporting_executeCommand -->
<g id="edge57" class="edge">
<title>supporting_mask_password&#45;&gt;devops_supporting_tools_supporting_executeCommand</title><style>.edge>path:hover{stroke-width:8}</style>
<path fill="none" stroke="black" d="M1682.09,-274C1680.32,-255.17 1679.17,-226.54 1684.65,-202.4"/>
</g>
<!-- supporting_randomize&#45;&gt;devops_supporting_tools_supporting_filehandling -->
<g id="edge58" class="edge">
<title>supporting_randomize&#45;&gt;devops_supporting_tools_supporting_filehandling</title><style>.edge>path:hover{stroke-width:8}</style>
<path fill="none" stroke="black" d="M1200.65,-200.4C1215.58,-156.84 1212.35,-103.26 1207.53,-67.95"/>
<polygon fill="#7f4cb3" stroke="black" points="1210.99,-67.43 1206.07,-58.05 1204.07,-68.45 1210.99,-67.43"/>
<path fill="none" stroke="black" d="M1083.24,-278.74C1124.27,-255.96 1195.51,-214.98 1200.65,-202.4"/>
</g>
<!-- uuid&#45;&gt;devops_supporting_tools_supporting_encryption -->
<g id="edge59" class="edge">
<title>uuid&#45;&gt;devops_supporting_tools_supporting_encryption</title><style>.edge>path:hover{stroke-width:8}</style>
<path fill="none" stroke="black" d="M1129.66,-280.85C1123.59,-276.01 1116.48,-270.69 1109.65,-266.39 982.74,-186.61 739.5,-249.72 807.65,-116.2"/>
</g>
<!-- zipfile&#45;&gt;devops_supporting_tools_supporting_generatezip -->
<g id="edge60" class="edge">
<title>zipfile&#45;&gt;devops_supporting_tools_supporting_generatezip</title><style>.edge>path:hover{stroke-width:8}</style>
<path fill="none" stroke="black" d="M1264.44,-278.24C1287.1,-236.63 1347.96,-124.9 1379.72,-66.57"/>
<polygon fill="#c04080" stroke="black" points="1382.85,-68.14 1384.56,-57.69 1376.71,-64.8 1382.85,-68.14"/>
</g>
</g>
</svg>
