<?xml version="1.0" encoding="UTF-8" standalone="no"?>
<!DOCTYPE svg PUBLIC "-//W3C//DTD SVG 1.1//EN"
 "http://www.w3.org/Graphics/SVG/1.1/DTD/svg11.dtd">
<!-- Generated by graphviz version 2.44.0 (20200408.0750)
 -->
<!-- Title: G Pages: 1 -->
<svg width="2296pt" height="551pt"
 viewBox="0.00 0.00 2295.59 550.91" xmlns="http://www.w3.org/2000/svg" xmlns:xlink="http://www.w3.org/1999/xlink">
<g id="graph0" class="graph" transform="scale(1 1) rotate(0) translate(4 546.91)">
<title>G</title><style>.edge>path:hover{stroke-width:8}</style>
<polygon fill="white" stroke="transparent" points="-4,4 -4,-546.91 2291.59,-546.91 2291.59,4 -4,4"/>
<!-- Crypto -->
<g id="node1" class="node">
<title>Crypto</title><style>.edge>path:hover{stroke-width:8}</style>
<ellipse fill="#f91010" stroke="black" cx="27.08" cy="-363.5" rx="27.16" ry="18"/>
<text text-anchor="middle" x="27.08" y="-361" font-family="Helvetica,sans-Serif" font-size="10.00" fill="#ffffff">Crypto</text>
</g>
<!-- devops_supporting_tools_supporting_encryption -->
<g id="node15" class="node">
<title>devops_supporting_tools_supporting_encryption</title><style>.edge>path:hover{stroke-width:8}</style>
<ellipse fill="#466335" stroke="black" cx="478.08" cy="-138.53" rx="90.52" ry="28.98"/>
<text text-anchor="middle" x="478.08" y="-147.03" font-family="Helvetica,sans-Serif" font-size="10.00" fill="#ffffff">devops_supporting_tools.</text>
<text text-anchor="middle" x="478.08" y="-136.03" font-family="Helvetica,sans-Serif" font-size="10.00" fill="#ffffff">supporting.</text>
<text text-anchor="middle" x="478.08" y="-125.03" font-family="Helvetica,sans-Serif" font-size="10.00" fill="#ffffff">encryption</text>
</g>
<!-- Crypto&#45;&gt;devops_supporting_tools_supporting_encryption -->
<g id="edge1" class="edge">
<title>Crypto&#45;&gt;devops_supporting_tools_supporting_encryption</title><style>.edge>path:hover{stroke-width:8}</style>
<path fill="none" stroke="black" d="M41.74,-348.35C47.88,-343.2 55.37,-337.83 63.08,-334.5 148.77,-297.57 477.85,-363.83 478.08,-270.51"/>
<path fill="none" stroke="black" d="M478.08,-268.51C478.15,-238.01 478.15,-203.44 478.13,-177.78"/>
<polygon fill="#f91010" stroke="black" points="481.63,-177.71 478.12,-167.71 474.63,-177.71 481.63,-177.71"/>
</g>
<!-- Crypto_Cipher -->
<g id="node2" class="node">
<title>Crypto_Cipher</title><style>.edge>path:hover{stroke-width:8}</style>
<ellipse fill="#c43131" stroke="black" cx="117.08" cy="-363.5" rx="45.15" ry="18"/>
<text text-anchor="middle" x="117.08" y="-361" font-family="Helvetica,sans-Serif" font-size="10.00" fill="#ffffff">Crypto.Cipher</text>
</g>
<!-- Crypto_Cipher&#45;&gt;devops_supporting_tools_supporting_encryption -->
<g id="edge2" class="edge">
<title>Crypto_Cipher&#45;&gt;devops_supporting_tools_supporting_encryption</title><style>.edge>path:hover{stroke-width:8}</style>
<path fill="none" stroke="black" d="M142.96,-348.6C153.08,-343.61 164.91,-338.28 176.08,-334.5 241.07,-312.54 477.91,-339.11 478.08,-270.51"/>
</g>
<!-- Crypto_Cipher_AES -->
<g id="node3" class="node">
<title>Crypto_Cipher_AES</title><style>.edge>path:hover{stroke-width:8}</style>
<ellipse fill="#a44646" stroke="black" cx="388.08" cy="-363.5" rx="34.8" ry="28.98"/>
<text text-anchor="middle" x="388.08" y="-372" font-family="Helvetica,sans-Serif" font-size="10.00" fill="#ffffff">Crypto.</text>
<text text-anchor="middle" x="388.08" y="-361" font-family="Helvetica,sans-Serif" font-size="10.00" fill="#ffffff">Cipher.</text>
<text text-anchor="middle" x="388.08" y="-350" font-family="Helvetica,sans-Serif" font-size="10.00" fill="#ffffff">AES</text>
</g>
<!-- Crypto_Cipher_AES&#45;&gt;devops_supporting_tools_supporting_encryption -->
<g id="edge3" class="edge">
<title>Crypto_Cipher_AES&#45;&gt;devops_supporting_tools_supporting_encryption</title><style>.edge>path:hover{stroke-width:8}</style>
<path fill="none" stroke="black" d="M413.61,-343.26C440.2,-322.23 478.03,-289.06 478.08,-270.51"/>
</g>
<!-- Crypto_Cipher_PKCS1_OAEP -->
<g id="node4" class="node">
<title>Crypto_Cipher_PKCS1_OAEP</title><style>.edge>path:hover{stroke-width:8}</style>
<ellipse fill="#a44646" stroke="black" cx="277.08" cy="-363.5" rx="58.88" ry="28.98"/>
<text text-anchor="middle" x="277.08" y="-372" font-family="Helvetica,sans-Serif" font-size="10.00" fill="#ffffff">Crypto.</text>
<text text-anchor="middle" x="277.08" y="-361" font-family="Helvetica,sans-Serif" font-size="10.00" fill="#ffffff">Cipher.</text>
<text text-anchor="middle" x="277.08" y="-350" font-family="Helvetica,sans-Serif" font-size="10.00" fill="#ffffff">PKCS1_OAEP</text>
</g>
<!-- Crypto_Cipher_PKCS1_OAEP&#45;&gt;devops_supporting_tools_supporting_encryption -->
<g id="edge4" class="edge">
<title>Crypto_Cipher_PKCS1_OAEP&#45;&gt;devops_supporting_tools_supporting_encryption</title><style>.edge>path:hover{stroke-width:8}</style>
<path fill="none" stroke="black" d="M320.69,-343.7C379.8,-318.07 478.07,-274.81 478.08,-270.51"/>
</g>
<!-- Crypto_Hash -->
<g id="node5" class="node">
<title>Crypto_Hash</title><style>.edge>path:hover{stroke-width:8}</style>
<ellipse fill="#c24747" stroke="black" cx="190.08" cy="-524.91" rx="42.27" ry="18"/>
<text text-anchor="middle" x="190.08" y="-522.41" font-family="Helvetica,sans-Serif" font-size="10.00" fill="#ffffff">Crypto.Hash</text>
</g>
<!-- Crypto_Hash&#45;&gt;Crypto_Cipher_PKCS1_OAEP -->
<g id="edge5" class="edge">
<title>Crypto_Hash&#45;&gt;Crypto_Cipher_PKCS1_OAEP</title><style>.edge>path:hover{stroke-width:8}</style>
<path fill="none" stroke="black" d="M190.08,-448.7C195.61,-425.47 213.36,-406.28 231.4,-392.11"/>
<polygon fill="#c24747" stroke="black" points="233.74,-394.74 239.67,-385.96 229.56,-389.12 233.74,-394.74"/>
</g>
<!-- Crypto_Hash&#45;&gt;devops_supporting_tools_supporting_encryption -->
<g id="edge6" class="edge">
<title>Crypto_Hash&#45;&gt;devops_supporting_tools_supporting_encryption</title><style>.edge>path:hover{stroke-width:8}</style>
<path fill="none" stroke="black" d="M187.86,-506.79C186.44,-491.78 185.61,-469.5 190.08,-450.7"/>
<path fill="none" stroke="black" d="M190.08,-448.7C201.99,-398.65 173.97,-372.11 209.08,-334.5 292.94,-244.67 476.84,-393.4 478.08,-270.51"/>
</g>
<!-- Crypto_Hash_SHA256 -->
<g id="node6" class="node">
<title>Crypto_Hash_SHA256</title><style>.edge>path:hover{stroke-width:8}</style>
<ellipse fill="#b34c4c" stroke="black" cx="478.08" cy="-363.5" rx="37.45" ry="28.98"/>
<text text-anchor="middle" x="478.08" y="-372" font-family="Helvetica,sans-Serif" font-size="10.00" fill="#ffffff">Crypto.</text>
<text text-anchor="middle" x="478.08" y="-361" font-family="Helvetica,sans-Serif" font-size="10.00" fill="#ffffff">Hash.</text>
<text text-anchor="middle" x="478.08" y="-350" font-family="Helvetica,sans-Serif" font-size="10.00" fill="#ffffff">SHA256</text>
</g>
<!-- Crypto_Hash_SHA256&#45;&gt;devops_supporting_tools_supporting_encryption -->
<g id="edge7" class="edge">
<title>Crypto_Hash_SHA256&#45;&gt;devops_supporting_tools_supporting_encryption</title><style>.edge>path:hover{stroke-width:8}</style>
<path fill="none" stroke="black" d="M478.04,-334.32C478.03,-316.11 478.03,-291.91 478.08,-270.51"/>
</g>
<!-- Crypto_PublicKey -->
<g id="node7" class="node">
<title>Crypto_PublicKey</title><style>.edge>path:hover{stroke-width:8}</style>
<ellipse fill="#c04040" stroke="black" cx="577.08" cy="-363.5" rx="43.27" ry="21.43"/>
<text text-anchor="middle" x="577.08" y="-366.5" font-family="Helvetica,sans-Serif" font-size="10.00" fill="#ffffff">Crypto.</text>
<text text-anchor="middle" x="577.08" y="-355.5" font-family="Helvetica,sans-Serif" font-size="10.00" fill="#ffffff">PublicKey</text>
</g>
<!-- Crypto_PublicKey&#45;&gt;devops_supporting_tools_supporting_encryption -->
<g id="edge8" class="edge">
<title>Crypto_PublicKey&#45;&gt;devops_supporting_tools_supporting_encryption</title><style>.edge>path:hover{stroke-width:8}</style>
<path fill="none" stroke="black" d="M552.34,-345.98C523,-325.48 478.03,-290.75 478.08,-270.51"/>
</g>
<!-- Crypto_PublicKey_RSA -->
<g id="node8" class="node">
<title>Crypto_PublicKey_RSA</title><style>.edge>path:hover{stroke-width:8}</style>
<ellipse fill="#a44646" stroke="black" cx="682.08" cy="-363.5" rx="43.68" ry="28.98"/>
<text text-anchor="middle" x="682.08" y="-372" font-family="Helvetica,sans-Serif" font-size="10.00" fill="#ffffff">Crypto.</text>
<text text-anchor="middle" x="682.08" y="-361" font-family="Helvetica,sans-Serif" font-size="10.00" fill="#ffffff">PublicKey.</text>
<text text-anchor="middle" x="682.08" y="-350" font-family="Helvetica,sans-Serif" font-size="10.00" fill="#ffffff">RSA</text>
</g>
<!-- Crypto_PublicKey_RSA&#45;&gt;devops_supporting_tools_supporting_encryption -->
<g id="edge9" class="edge">
<title>Crypto_PublicKey_RSA&#45;&gt;devops_supporting_tools_supporting_encryption</title><style>.edge>path:hover{stroke-width:8}</style>
<path fill="none" stroke="black" d="M648.94,-344.44C642.4,-341.04 635.56,-337.58 629.08,-334.5 563.24,-303.24 477.9,-343.4 478.08,-270.51"/>
</g>
<!-- Crypto_Random -->
<g id="node9" class="node">
<title>Crypto_Random</title><style>.edge>path:hover{stroke-width:8}</style>
<ellipse fill="#db2f2f" stroke="black" cx="670.08" cy="-524.91" rx="50.75" ry="18"/>
<text text-anchor="middle" x="670.08" y="-522.41" font-family="Helvetica,sans-Serif" font-size="10.00" fill="#ffffff">Crypto.Random</text>
</g>
<!-- Crypto_Random&#45;&gt;Crypto_Cipher_AES -->
<g id="edge10" class="edge">
<title>Crypto_Random&#45;&gt;Crypto_Cipher_AES</title><style>.edge>path:hover{stroke-width:8}</style>
<path fill="none" stroke="black" d="M682.08,-448.7C632.04,-346.4 537.24,-436.19 432.08,-392.49 429.07,-391.24 426.04,-389.78 423.04,-388.21"/>
<polygon fill="#db2f2f" stroke="black" points="424.69,-385.12 414.27,-383.21 421.22,-391.2 424.69,-385.12"/>
</g>
<!-- Crypto_Random&#45;&gt;Crypto_Cipher_PKCS1_OAEP -->
<g id="edge11" class="edge">
<title>Crypto_Random&#45;&gt;Crypto_Cipher_PKCS1_OAEP</title><style>.edge>path:hover{stroke-width:8}</style>
<path fill="none" stroke="black" d="M678.3,-507.09C684.6,-491.69 690.85,-468.63 682.08,-450.7"/>
<path fill="none" stroke="black" d="M682.08,-448.7C648.62,-380.3 417.25,-413.55 344.08,-392.49 339.06,-391.04 333.91,-389.33 328.8,-387.48"/>
<polygon fill="#db2f2f" stroke="black" points="329.67,-384.07 319.08,-383.78 327.18,-390.61 329.67,-384.07"/>
</g>
<!-- Crypto_Random&#45;&gt;Crypto_PublicKey_RSA -->
<g id="edge12" class="edge">
<title>Crypto_Random&#45;&gt;Crypto_PublicKey_RSA</title><style>.edge>path:hover{stroke-width:8}</style>
<path fill="none" stroke="black" d="M682.08,-448.7C675.19,-434.62 674.07,-417.55 675.1,-402.48"/>
<polygon fill="#db2f2f" stroke="black" points="678.59,-402.72 676.11,-392.42 671.63,-402.02 678.59,-402.72"/>
</g>
<!-- Crypto_Random&#45;&gt;devops_supporting_tools_supporting_encryption -->
<g id="edge13" class="edge">
<title>Crypto_Random&#45;&gt;devops_supporting_tools_supporting_encryption</title><style>.edge>path:hover{stroke-width:8}</style>
<path fill="none" stroke="black" d="M754.08,-362.5C747.9,-348.79 747.41,-343.11 735.08,-334.5 638.55,-267.15 476.9,-388.22 478.08,-270.51"/>
<path fill="none" stroke="black" d="M682.08,-448.7C660.44,-404.47 774.31,-409.39 754.08,-364.5"/>
</g>
<!-- base64 -->
<g id="node10" class="node">
<title>base64</title><style>.edge>path:hover{stroke-width:8}</style>
<ellipse fill="#c28a47" stroke="black" cx="767.08" cy="-524.91" rx="28.01" ry="18"/>
<text text-anchor="middle" x="767.08" y="-522.41" font-family="Helvetica,sans-Serif" font-size="10.00" fill="#000000">base64</text>
</g>
<!-- cryptography_fernet -->
<g id="node12" class="node">
<title>cryptography_fernet</title><style>.edge>path:hover{stroke-width:8}</style>
<ellipse fill="#a3ac49" stroke="black" cx="938.08" cy="-363.5" rx="52.15" ry="21.43"/>
<text text-anchor="middle" x="938.08" y="-366.5" font-family="Helvetica,sans-Serif" font-size="10.00" fill="#000000">cryptography.</text>
<text text-anchor="middle" x="938.08" y="-355.5" font-family="Helvetica,sans-Serif" font-size="10.00" fill="#000000">fernet</text>
</g>
<!-- base64&#45;&gt;cryptography_fernet -->
<g id="edge14" class="edge">
<title>base64&#45;&gt;cryptography_fernet</title><style>.edge>path:hover{stroke-width:8}</style>
<path fill="none" stroke="black" d="M754.08,-448.7C773.18,-391.71 822.43,-417.51 877.08,-392.49 882.92,-389.81 889.07,-386.99 895.13,-384.21"/>
<polygon fill="#c28a47" stroke="black" points="896.89,-387.26 904.52,-379.91 893.97,-380.89 896.89,-387.26"/>
</g>
<!-- base64&#45;&gt;devops_supporting_tools_supporting_encryption -->
<g id="edge15" class="edge">
<title>base64&#45;&gt;devops_supporting_tools_supporting_encryption</title><style>.edge>path:hover{stroke-width:8}</style>
<path fill="none" stroke="black" d="M759.52,-507.28C753.75,-492.22 747.76,-469.55 754.08,-450.7"/>
<path fill="none" stroke="black" d="M754.08,-448.7C765.97,-413.22 769.46,-398.61 754.08,-364.5"/>
</g>
<!-- cryptography -->
<g id="node11" class="node">
<title>cryptography</title><style>.edge>path:hover{stroke-width:8}</style>
<ellipse fill="#becc33" stroke="black" cx="825.08" cy="-363.5" rx="42.94" ry="18"/>
<text text-anchor="middle" x="825.08" y="-361" font-family="Helvetica,sans-Serif" font-size="10.00" fill="#000000">cryptography</text>
</g>
<!-- cryptography&#45;&gt;devops_supporting_tools_supporting_encryption -->
<g id="edge16" class="edge">
<title>cryptography&#45;&gt;devops_supporting_tools_supporting_encryption</title><style>.edge>path:hover{stroke-width:8}</style>
<path fill="none" stroke="black" d="M800.38,-348.76C790.56,-343.73 779,-338.33 768.08,-334.5 705.79,-312.69 477.92,-336.51 478.08,-270.51"/>
</g>
<!-- cryptography_fernet&#45;&gt;devops_supporting_tools_supporting_encryption -->
<g id="edge17" class="edge">
<title>cryptography_fernet&#45;&gt;devops_supporting_tools_supporting_encryption</title><style>.edge>path:hover{stroke-width:8}</style>
<path fill="none" stroke="black" d="M907.05,-346.29C897.63,-341.91 887.11,-337.55 877.08,-334.5 791.15,-308.43 477.18,-360.31 478.08,-270.51"/>
</g>
<!-- devops_supporting_tools_supporting_artifactHandling -->
<g id="node13" class="node">
<title>devops_supporting_tools_supporting_artifactHandling</title><style>.edge>path:hover{stroke-width:8}</style>
<ellipse fill="#67924e" stroke="black" cx="1567.08" cy="-138.53" rx="90.52" ry="28.98"/>
<text text-anchor="middle" x="1567.08" y="-147.03" font-family="Helvetica,sans-Serif" font-size="10.00" fill="#ffffff">devops_supporting_tools.</text>
<text text-anchor="middle" x="1567.08" y="-136.03" font-family="Helvetica,sans-Serif" font-size="10.00" fill="#ffffff">supporting.</text>
<text text-anchor="middle" x="1567.08" y="-125.03" font-family="Helvetica,sans-Serif" font-size="10.00" fill="#ffffff">artifactHandling</text>
</g>
<!-- devops_supporting_tools_supporting_deploylist -->
<g id="node14" class="node">
<title>devops_supporting_tools_supporting_deploylist</title><style>.edge>path:hover{stroke-width:8}</style>
<ellipse fill="#6c9952" stroke="black" cx="1130.08" cy="-138.53" rx="90.52" ry="28.98"/>
<text text-anchor="middle" x="1130.08" y="-147.03" font-family="Helvetica,sans-Serif" font-size="10.00" fill="#000000">devops_supporting_tools.</text>
<text text-anchor="middle" x="1130.08" y="-136.03" font-family="Helvetica,sans-Serif" font-size="10.00" fill="#000000">supporting.</text>
<text text-anchor="middle" x="1130.08" y="-125.03" font-family="Helvetica,sans-Serif" font-size="10.00" fill="#000000">deploylist</text>
</g>
<!-- devops_supporting_tools_supporting_errorcodes -->
<g id="node16" class="node">
<title>devops_supporting_tools_supporting_errorcodes</title><style>.edge>path:hover{stroke-width:8}</style>
<ellipse fill="#6c9952" stroke="black" cx="732.08" cy="-138.53" rx="90.52" ry="28.98"/>
<text text-anchor="middle" x="732.08" y="-147.03" font-family="Helvetica,sans-Serif" font-size="10.00" fill="#000000">devops_supporting_tools.</text>
<text text-anchor="middle" x="732.08" y="-136.03" font-family="Helvetica,sans-Serif" font-size="10.00" fill="#000000">supporting.</text>
<text text-anchor="middle" x="732.08" y="-125.03" font-family="Helvetica,sans-Serif" font-size="10.00" fill="#000000">errorcodes</text>
</g>
<!-- devops_supporting_tools_supporting_executeCommand -->
<g id="node17" class="node">
<title>devops_supporting_tools_supporting_executeCommand</title><style>.edge>path:hover{stroke-width:8}</style>
<ellipse fill="#628b4b" stroke="black" cx="1368.08" cy="-138.53" rx="90.52" ry="28.98"/>
<text text-anchor="middle" x="1368.08" y="-147.03" font-family="Helvetica,sans-Serif" font-size="10.00" fill="#ffffff">devops_supporting_tools.</text>
<text text-anchor="middle" x="1368.08" y="-136.03" font-family="Helvetica,sans-Serif" font-size="10.00" fill="#ffffff">supporting.</text>
<text text-anchor="middle" x="1368.08" y="-125.03" font-family="Helvetica,sans-Serif" font-size="10.00" fill="#ffffff">executeCommand</text>
</g>
<!-- devops_supporting_tools_supporting_filehandling -->
<g id="node18" class="node">
<title>devops_supporting_tools_supporting_filehandling</title><style>.edge>path:hover{stroke-width:8}</style>
<ellipse fill="#67924e" stroke="black" cx="2004.08" cy="-138.53" rx="90.52" ry="28.98"/>
<text text-anchor="middle" x="2004.08" y="-147.03" font-family="Helvetica,sans-Serif" font-size="10.00" fill="#ffffff">devops_supporting_tools.</text>
<text text-anchor="middle" x="2004.08" y="-136.03" font-family="Helvetica,sans-Serif" font-size="10.00" fill="#ffffff">supporting.</text>
<text text-anchor="middle" x="2004.08" y="-125.03" font-family="Helvetica,sans-Serif" font-size="10.00" fill="#ffffff">filehandling</text>
</g>
<!-- devops_supporting_tools_supporting_generalSettings -->
<g id="node19" class="node">
<title>devops_supporting_tools_supporting_generalSettings</title><style>.edge>path:hover{stroke-width:8}</style>
<ellipse fill="#6c9952" stroke="black" cx="931.08" cy="-138.53" rx="90.52" ry="28.98"/>
<text text-anchor="middle" x="931.08" y="-147.03" font-family="Helvetica,sans-Serif" font-size="10.00" fill="#000000">devops_supporting_tools.</text>
<text text-anchor="middle" x="931.08" y="-136.03" font-family="Helvetica,sans-Serif" font-size="10.00" fill="#000000">supporting.</text>
<text text-anchor="middle" x="931.08" y="-125.03" font-family="Helvetica,sans-Serif" font-size="10.00" fill="#000000">generalSettings</text>
</g>
<!-- devops_supporting_tools_supporting_generatezip -->
<g id="node20" class="node">
<title>devops_supporting_tools_supporting_generatezip</title><style>.edge>path:hover{stroke-width:8}</style>
<ellipse fill="#628b4b" stroke="black" cx="1805.08" cy="-138.53" rx="90.52" ry="28.98"/>
<text text-anchor="middle" x="1805.08" y="-147.03" font-family="Helvetica,sans-Serif" font-size="10.00" fill="#ffffff">devops_supporting_tools.</text>
<text text-anchor="middle" x="1805.08" y="-136.03" font-family="Helvetica,sans-Serif" font-size="10.00" fill="#ffffff">supporting.</text>
<text text-anchor="middle" x="1805.08" y="-125.03" font-family="Helvetica,sans-Serif" font-size="10.00" fill="#ffffff">generatezip</text>
</g>
<!-- devops_supporting_tools_supporting_logging_customLogger -->
<g id="node21" class="node">
<title>devops_supporting_tools_supporting_logging_customLogger</title><style>.edge>path:hover{stroke-width:8}</style>
<ellipse fill="#6c9952" stroke="black" cx="1249.08" cy="-36.77" rx="90.52" ry="36.54"/>
<text text-anchor="middle" x="1249.08" y="-50.77" font-family="Helvetica,sans-Serif" font-size="10.00" fill="#000000">devops_supporting_tools.</text>
<text text-anchor="middle" x="1249.08" y="-39.77" font-family="Helvetica,sans-Serif" font-size="10.00" fill="#000000">supporting.</text>
<text text-anchor="middle" x="1249.08" y="-28.77" font-family="Helvetica,sans-Serif" font-size="10.00" fill="#000000">logging.</text>
<text text-anchor="middle" x="1249.08" y="-17.77" font-family="Helvetica,sans-Serif" font-size="10.00" fill="#000000">customLogger</text>
</g>
<!-- devops_supporting_tools_supporting_randomize -->
<g id="node22" class="node">
<title>devops_supporting_tools_supporting_randomize</title><style>.edge>path:hover{stroke-width:8}</style>
<ellipse fill="#75a659" stroke="black" cx="2197.08" cy="-269.51" rx="90.52" ry="28.98"/>
<text text-anchor="middle" x="2197.08" y="-278.01" font-family="Helvetica,sans-Serif" font-size="10.00" fill="#000000">devops_supporting_tools.</text>
<text text-anchor="middle" x="2197.08" y="-267.01" font-family="Helvetica,sans-Serif" font-size="10.00" fill="#000000">supporting.</text>
<text text-anchor="middle" x="2197.08" y="-256.01" font-family="Helvetica,sans-Serif" font-size="10.00" fill="#000000">randomize</text>
</g>
<!-- logging -->
<g id="node23" class="node">
<title>logging</title><style>.edge>path:hover{stroke-width:8}</style>
<ellipse fill="#10f93a" stroke="black" cx="1516.08" cy="-524.91" rx="27.84" ry="18"/>
<text text-anchor="middle" x="1516.08" y="-522.41" font-family="Helvetica,sans-Serif" font-size="10.00" fill="#000000">logging</text>
</g>
<!-- logging&#45;&gt;devops_supporting_tools_supporting_artifactHandling -->
<g id="edge18" class="edge">
<title>logging&#45;&gt;devops_supporting_tools_supporting_artifactHandling</title><style>.edge>path:hover{stroke-width:8}</style>
<path fill="none" stroke="black" d="M1543.11,-520.04C1601.02,-511.1 1733.77,-486.98 1758.08,-450.7"/>
<path fill="none" stroke="black" d="M1758.08,-448.7C1784.54,-409.21 1696.84,-429.56 1667.08,-392.49 1622.3,-336.71 1640.98,-306.8 1614.08,-240.52 1605.37,-219.06 1594.52,-195.58 1585.44,-176.66"/>
<polygon fill="#10f93a" stroke="black" points="1588.52,-174.97 1581.01,-167.49 1582.21,-178.02 1588.52,-174.97"/>
</g>
<!-- logging&#45;&gt;devops_supporting_tools_supporting_deploylist -->
<g id="edge19" class="edge">
<title>logging&#45;&gt;devops_supporting_tools_supporting_deploylist</title><style>.edge>path:hover{stroke-width:8}</style>
<path fill="none" stroke="black" d="M1018.08,-268.51C997.37,-230.19 1037.3,-193.38 1075.1,-168.96"/>
<polygon fill="#10f93a" stroke="black" points="1076.99,-171.91 1083.61,-163.64 1073.28,-165.97 1076.99,-171.91"/>
</g>
<!-- logging&#45;&gt;devops_supporting_tools_supporting_errorcodes -->
<g id="edge20" class="edge">
<title>logging&#45;&gt;devops_supporting_tools_supporting_errorcodes</title><style>.edge>path:hover{stroke-width:8}</style>
<path fill="none" stroke="black" d="M818.08,-203.52C803.07,-193.78 787.21,-182.34 773.25,-171.83"/>
<polygon fill="#10f93a" stroke="black" points="775.35,-169.04 765.27,-165.78 771.12,-174.61 775.35,-169.04"/>
</g>
<!-- logging&#45;&gt;devops_supporting_tools_supporting_executeCommand -->
<g id="edge21" class="edge">
<title>logging&#45;&gt;devops_supporting_tools_supporting_executeCommand</title><style>.edge>path:hover{stroke-width:8}</style>
<path fill="none" stroke="black" d="M1132.08,-448.7C1054.69,-396.88 1101.92,-316.3 1156.08,-240.52 1186.34,-198.18 1239.15,-172.95 1284.48,-158.3"/>
<polygon fill="#10f93a" stroke="black" points="1285.52,-161.64 1294.03,-155.33 1283.44,-154.96 1285.52,-161.64"/>
</g>
<!-- logging&#45;&gt;devops_supporting_tools_supporting_generalSettings -->
<g id="edge22" class="edge">
<title>logging&#45;&gt;devops_supporting_tools_supporting_generalSettings</title><style>.edge>path:hover{stroke-width:8}</style>
<path fill="none" stroke="black" d="M818.08,-203.52C794.75,-188.39 820.13,-172.98 852.69,-161.08"/>
<polygon fill="#10f93a" stroke="black" points="854.21,-164.26 862.5,-157.66 851.91,-157.65 854.21,-164.26"/>
</g>
<!-- logging&#45;&gt;devops_supporting_tools_supporting_generatezip -->
<g id="edge23" class="edge">
<title>logging&#45;&gt;devops_supporting_tools_supporting_generatezip</title><style>.edge>path:hover{stroke-width:8}</style>
<path fill="none" stroke="black" d="M1758.08,-448.7C1802.54,-383.17 1737.01,-346.85 1758.08,-270.51"/>
</g>
<!-- logging&#45;&gt;devops_supporting_tools_supporting_logging_customLogger -->
<g id="edge24" class="edge">
<title>logging&#45;&gt;devops_supporting_tools_supporting_logging_customLogger</title><style>.edge>path:hover{stroke-width:8}</style>
<path fill="none" stroke="black" d="M1018.08,-268.51C975.1,-185.67 896.37,-255.32 818.08,-204.52"/>
<path fill="none" stroke="black" d="M1488.37,-524.67C1422.08,-525.26 1251.06,-519.48 1132.08,-450.7"/>
<path fill="none" stroke="black" d="M818.08,-203.52C747.44,-157.69 685.66,-232.47 632.08,-167.52 615.68,-147.64 614.94,-128.79 632.08,-109.54 665.8,-71.67 982.95,-50.71 1148.91,-42.25"/>
<polygon fill="#10f93a" stroke="black" points="1149.32,-45.73 1159.13,-41.73 1148.96,-38.74 1149.32,-45.73"/>
<path fill="none" stroke="black" d="M1132.08,-448.7C1094.14,-426.77 1076.33,-428.3 1051.08,-392.49 1018.71,-346.59 1043.94,-320.36 1018.08,-270.51"/>
</g>
<!-- supporting -->
<g id="node28" class="node">
<title>supporting</title><style>.edge>path:hover{stroke-width:8}</style>
<ellipse fill="#d105e5" stroke="black" cx="1196.08" cy="-363.5" rx="36.49" ry="18"/>
<text text-anchor="middle" x="1196.08" y="-361" font-family="Helvetica,sans-Serif" font-size="10.00" fill="#ffffff">supporting</text>
</g>
<!-- logging&#45;&gt;supporting -->
<g id="edge25" class="edge">
<title>logging&#45;&gt;supporting</title><style>.edge>path:hover{stroke-width:8}</style>
<path fill="none" stroke="black" d="M1516.08,-448.7C1453.81,-341.1 1357.78,-437.96 1242.08,-392.49 1236.28,-390.21 1230.39,-387.22 1224.84,-384.05"/>
<polygon fill="#10f93a" stroke="black" points="1226.27,-380.82 1215.9,-378.62 1222.63,-386.8 1226.27,-380.82"/>
<path fill="none" stroke="black" d="M1520.62,-506.98C1523.84,-491.3 1526.01,-467.86 1516.08,-450.7"/>
</g>
<!-- supporting_errorcodes -->
<g id="node30" class="node">
<title>supporting_errorcodes</title><style>.edge>path:hover{stroke-width:8}</style>
<ellipse fill="#b923c8" stroke="black" cx="1536.08" cy="-363.5" rx="45.92" ry="21.43"/>
<text text-anchor="middle" x="1536.08" y="-366.5" font-family="Helvetica,sans-Serif" font-size="10.00" fill="#ffffff">supporting.</text>
<text text-anchor="middle" x="1536.08" y="-355.5" font-family="Helvetica,sans-Serif" font-size="10.00" fill="#ffffff">errorcodes</text>
</g>
<!-- logging&#45;&gt;supporting_errorcodes -->
<g id="edge26" class="edge">
<title>logging&#45;&gt;supporting_errorcodes</title><style>.edge>path:hover{stroke-width:8}</style>
<path fill="none" stroke="black" d="M1516.08,-448.7C1506.33,-431.85 1511.57,-410.49 1519.13,-393.49"/>
<polygon fill="#10f93a" stroke="black" points="1522.49,-394.58 1523.75,-384.06 1516.21,-391.5 1522.49,-394.58"/>
</g>
<!-- supporting_generalSettings -->
<g id="node32" class="node">
<title>supporting_generalSettings</title><style>.edge>path:hover{stroke-width:8}</style>
<ellipse fill="#9c46a4" stroke="black" cx="1845.08" cy="-363.5" rx="59.29" ry="21.43"/>
<text text-anchor="middle" x="1845.08" y="-366.5" font-family="Helvetica,sans-Serif" font-size="10.00" fill="#ffffff">supporting.</text>
<text text-anchor="middle" x="1845.08" y="-355.5" font-family="Helvetica,sans-Serif" font-size="10.00" fill="#ffffff">generalSettings</text>
</g>
<!-- logging&#45;&gt;supporting_generalSettings -->
<g id="edge27" class="edge">
<title>logging&#45;&gt;supporting_generalSettings</title><style>.edge>path:hover{stroke-width:8}</style>
<path fill="none" stroke="black" d="M1758.08,-448.7C1773.1,-426.29 1794.92,-405.18 1812.96,-389.71"/>
<polygon fill="#10f93a" stroke="black" points="1815.53,-392.12 1820.94,-383.01 1811.03,-386.76 1815.53,-392.12"/>
</g>
<!-- pathlib -->
<g id="node24" class="node">
<title>pathlib</title><style>.edge>path:hover{stroke-width:8}</style>
<ellipse fill="#53b69b" stroke="black" cx="1703.08" cy="-363.5" rx="27" ry="18"/>
<text text-anchor="middle" x="1703.08" y="-361" font-family="Helvetica,sans-Serif" font-size="10.00" fill="#000000">pathlib</text>
</g>
<!-- pathlib&#45;&gt;devops_supporting_tools_supporting_generatezip -->
<g id="edge28" class="edge">
<title>pathlib&#45;&gt;devops_supporting_tools_supporting_generatezip</title><style>.edge>path:hover{stroke-width:8}</style>
<path fill="none" stroke="black" d="M1758.08,-268.51C1762.7,-236.3 1775.76,-201.75 1786.95,-176.53"/>
<polygon fill="#53b69b" stroke="black" points="1790.17,-177.89 1791.12,-167.34 1783.8,-175 1790.17,-177.89"/>
<path fill="none" stroke="black" d="M1715.65,-347.42C1729.17,-330.12 1749.86,-300.29 1758.08,-270.51"/>
</g>
<!-- random -->
<g id="node25" class="node">
<title>random</title><style>.edge>path:hover{stroke-width:8}</style>
<ellipse fill="#47a1c2" stroke="black" cx="2197.08" cy="-524.91" rx="28.69" ry="18"/>
<text text-anchor="middle" x="2197.08" y="-522.41" font-family="Helvetica,sans-Serif" font-size="10.00" fill="#000000">random</text>
</g>
<!-- random&#45;&gt;devops_supporting_tools_supporting_randomize -->
<g id="edge29" class="edge">
<title>random&#45;&gt;devops_supporting_tools_supporting_randomize</title><style>.edge>path:hover{stroke-width:8}</style>
<path fill="none" stroke="black" d="M2197.08,-448.7C2182.63,-402.33 2185.9,-345.82 2190.6,-309.04"/>
<polygon fill="#47a1c2" stroke="black" points="2194.12,-309.14 2192.01,-298.76 2187.18,-308.19 2194.12,-309.14"/>
</g>
<!-- supporting_randomize -->
<g id="node34" class="node">
<title>supporting_randomize</title><style>.edge>path:hover{stroke-width:8}</style>
<ellipse fill="#a94cb3" stroke="black" cx="2078.08" cy="-363.5" rx="45.92" ry="21.43"/>
<text text-anchor="middle" x="2078.08" y="-366.5" font-family="Helvetica,sans-Serif" font-size="10.00" fill="#ffffff">supporting.</text>
<text text-anchor="middle" x="2078.08" y="-355.5" font-family="Helvetica,sans-Serif" font-size="10.00" fill="#ffffff">randomize</text>
</g>
<!-- random&#45;&gt;supporting_randomize -->
<g id="edge30" class="edge">
<title>random&#45;&gt;supporting_randomize</title><style>.edge>path:hover{stroke-width:8}</style>
<path fill="none" stroke="black" d="M2199.89,-506.91C2201.73,-491.79 2202.86,-469.27 2197.08,-450.7"/>
<path fill="none" stroke="black" d="M2197.08,-448.7C2186.73,-415.49 2153.18,-393.66 2124.34,-380.57"/>
<polygon fill="#47a1c2" stroke="black" points="2125.34,-377.2 2114.77,-376.47 2122.58,-383.63 2125.34,-377.2"/>
</g>
<!-- shutil -->
<g id="node26" class="node">
<title>shutil</title><style>.edge>path:hover{stroke-width:8}</style>
<ellipse fill="#4057c0" stroke="black" cx="1987.08" cy="-363.5" rx="27" ry="18"/>
<text text-anchor="middle" x="1987.08" y="-361" font-family="Helvetica,sans-Serif" font-size="10.00" fill="#ffffff">shutil</text>
</g>
<!-- shutil&#45;&gt;devops_supporting_tools_supporting_filehandling -->
<g id="edge31" class="edge">
<title>shutil&#45;&gt;devops_supporting_tools_supporting_filehandling</title><style>.edge>path:hover{stroke-width:8}</style>
<path fill="none" stroke="black" d="M2078.08,-268.51C2086.13,-233.39 2063.41,-198.23 2041.08,-173.51"/>
<polygon fill="#4057c0" stroke="black" points="2043.59,-171.08 2034.19,-166.19 2038.49,-175.87 2043.59,-171.08"/>
<path fill="none" stroke="black" d="M2004.49,-349.31C2030.26,-329.16 2075.76,-290.94 2078.08,-270.51"/>
</g>
<!-- zipfile -->
<g id="node35" class="node">
<title>zipfile</title><style>.edge>path:hover{stroke-width:8}</style>
<ellipse fill="#c04085" stroke="black" cx="1959.08" cy="-449.7" rx="27" ry="18"/>
<text text-anchor="middle" x="1959.08" y="-447.2" font-family="Helvetica,sans-Serif" font-size="10.00" fill="#ffffff">zipfile</text>
</g>
<!-- subprocess -->
<g id="node27" class="node">
<title>subprocess</title><style>.edge>path:hover{stroke-width:8}</style>
<ellipse fill="#7753b6" stroke="black" cx="1433.08" cy="-363.5" rx="39.38" ry="18"/>
<text text-anchor="middle" x="1433.08" y="-361" font-family="Helvetica,sans-Serif" font-size="10.00" fill="#ffffff">subprocess</text>
</g>
<!-- subprocess&#45;&gt;devops_supporting_tools_supporting_executeCommand -->
<g id="edge33" class="edge">
<title>subprocess&#45;&gt;devops_supporting_tools_supporting_executeCommand</title><style>.edge>path:hover{stroke-width:8}</style>
<path fill="none" stroke="black" d="M1458.08,-203.52C1450.94,-189.51 1439.14,-177.9 1426.39,-168.6"/>
<polygon fill="#7753b6" stroke="black" points="1428.15,-165.57 1417.92,-162.82 1424.21,-171.35 1428.15,-165.57"/>
<path fill="none" stroke="black" d="M1433.12,-345.29C1433.52,-321.44 1435.48,-277.16 1444.08,-240.52 1448,-223.81 1465.87,-219.82 1458.08,-204.52"/>
</g>
<!-- supporting&#45;&gt;devops_supporting_tools_supporting_artifactHandling -->
<g id="edge34" class="edge">
<title>supporting&#45;&gt;devops_supporting_tools_supporting_artifactHandling</title><style>.edge>path:hover{stroke-width:8}</style>
<path fill="none" stroke="black" d="M1496.08,-203.52C1497.17,-190.48 1504.33,-179.39 1513.72,-170.3"/>
<polygon fill="#d105e5" stroke="black" points="1516.02,-172.94 1521.27,-163.74 1511.43,-167.66 1516.02,-172.94"/>
<path fill="none" stroke="black" d="M1216.53,-348.49C1224.29,-343.6 1233.36,-338.37 1242.08,-334.5 1333.61,-293.92 1375.41,-327.01 1458.08,-270.51"/>
<path fill="none" stroke="black" d="M1458.08,-268.51C1471.73,-259.18 1494.7,-221 1496.08,-204.52"/>
</g>
<!-- supporting&#45;&gt;devops_supporting_tools_supporting_deploylist -->
<g id="edge35" class="edge">
<title>supporting&#45;&gt;devops_supporting_tools_supporting_deploylist</title><style>.edge>path:hover{stroke-width:8}</style>
<path fill="none" stroke="black" d="M1130.08,-203.52C1123.5,-196.72 1121.3,-187.36 1121.29,-177.89"/>
<polygon fill="#d105e5" stroke="black" points="1124.8,-177.93 1122.04,-167.7 1117.82,-177.42 1124.8,-177.93"/>
</g>
<!-- supporting&#45;&gt;devops_supporting_tools_supporting_errorcodes -->
<g id="edge36" class="edge">
<title>supporting&#45;&gt;devops_supporting_tools_supporting_errorcodes</title><style>.edge>path:hover{stroke-width:8}</style>
<path fill="none" stroke="black" d="M1193.75,-345.26C1190.6,-326.02 1183.72,-294.45 1170.08,-270.51"/>
<path fill="none" stroke="black" d="M1170.08,-268.51C1117.97,-177.07 1041.51,-239.03 942.08,-204.52"/>
</g>
<!-- supporting&#45;&gt;devops_supporting_tools_supporting_executeCommand -->
<g id="edge37" class="edge">
<title>supporting&#45;&gt;devops_supporting_tools_supporting_executeCommand</title><style>.edge>path:hover{stroke-width:8}</style>
<path fill="none" stroke="black" d="M1249.08,-203.52C1264.82,-188.48 1284.78,-175.94 1303.84,-166.05"/>
<polygon fill="#d105e5" stroke="black" points="1305.44,-169.17 1312.81,-161.56 1302.3,-162.91 1305.44,-169.17"/>
</g>
<!-- supporting&#45;&gt;devops_supporting_tools_supporting_filehandling -->
<g id="edge38" class="edge">
<title>supporting&#45;&gt;devops_supporting_tools_supporting_filehandling</title><style>.edge>path:hover{stroke-width:8}</style>
<path fill="none" stroke="black" d="M1215.78,-348.04C1223.6,-342.98 1232.91,-337.75 1242.08,-334.5 1355.38,-294.42 1404.98,-356.8 1510.08,-298.5 1539.33,-282.28 1529.44,-257.82 1558.08,-240.52 1692.98,-159.05 1752.05,-205.21 1905.08,-167.52 1912.85,-165.61 1920.93,-163.51 1928.97,-161.34"/>
<polygon fill="#d105e5" stroke="black" points="1930.02,-164.69 1938.74,-158.68 1928.18,-157.93 1930.02,-164.69"/>
</g>
<!-- supporting&#45;&gt;devops_supporting_tools_supporting_generalSettings -->
<g id="edge39" class="edge">
<title>supporting&#45;&gt;devops_supporting_tools_supporting_generalSettings</title><style>.edge>path:hover{stroke-width:8}</style>
<path fill="none" stroke="black" d="M1130.08,-203.52C1125.43,-198.71 1060.16,-178.23 1005.62,-161.71"/>
<polygon fill="#d105e5" stroke="black" points="1006.51,-158.33 995.93,-158.78 1004.49,-165.03 1006.51,-158.33"/>
<path fill="none" stroke="black" d="M1170.08,-268.51C1153.47,-239.37 1153.39,-228.64 1130.08,-204.52"/>
</g>
<!-- supporting&#45;&gt;devops_supporting_tools_supporting_generatezip -->
<g id="edge40" class="edge">
<title>supporting&#45;&gt;devops_supporting_tools_supporting_generatezip</title><style>.edge>path:hover{stroke-width:8}</style>
<path fill="none" stroke="black" d="M1458.08,-268.51C1471.61,-259.27 1468.4,-249.54 1482.08,-240.52 1522.14,-214.1 1642.6,-180.28 1724.54,-159.26"/>
<polygon fill="#d105e5" stroke="black" points="1725.51,-162.62 1734.33,-156.76 1723.77,-155.84 1725.51,-162.62"/>
</g>
<!-- supporting&#45;&gt;devops_supporting_tools_supporting_logging_customLogger -->
<g id="edge41" class="edge">
<title>supporting&#45;&gt;devops_supporting_tools_supporting_logging_customLogger</title><style>.edge>path:hover{stroke-width:8}</style>
<path fill="none" stroke="black" d="M1249.08,-203.52C1265.69,-187.65 1261.58,-127.08 1256.13,-83.75"/>
<polygon fill="#d105e5" stroke="black" points="1259.58,-83.15 1254.81,-73.7 1252.64,-84.07 1259.58,-83.15"/>
<path fill="none" stroke="black" d="M1170.08,-268.51C1147.71,-229.26 1215.73,-235.01 1249.08,-204.52"/>
</g>
<!-- supporting_errorcode -->
<g id="node29" class="node">
<title>supporting_errorcode</title><style>.edge>path:hover{stroke-width:8}</style>
<ellipse fill="#b747c2" stroke="black" cx="1324.08" cy="-449.7" rx="45.92" ry="21.43"/>
<text text-anchor="middle" x="1324.08" y="-452.7" font-family="Helvetica,sans-Serif" font-size="10.00" fill="#ffffff">supporting.</text>
<text text-anchor="middle" x="1324.08" y="-441.7" font-family="Helvetica,sans-Serif" font-size="10.00" fill="#ffffff">errorcode</text>
</g>
<!-- supporting_errorcode&#45;&gt;devops_supporting_tools_supporting_errorcodes -->
<g id="edge42" class="edge">
<title>supporting_errorcode&#45;&gt;devops_supporting_tools_supporting_errorcodes</title><style>.edge>path:hover{stroke-width:8}</style>
<path fill="none" stroke="black" d="M1279.93,-443.8C1217.77,-436.04 1108.82,-419.03 1080.08,-392.49 1028.04,-344.43 1080.26,-292.44 1032.08,-240.52 1002.77,-208.94 982.78,-218.65 942.08,-204.52"/>
<path fill="none" stroke="black" d="M942.08,-203.52C898.26,-188.02 848.54,-172.77 808.48,-161.04"/>
<polygon fill="#b747c2" stroke="black" points="809.36,-157.65 798.78,-158.22 807.4,-164.37 809.36,-157.65"/>
</g>
<!-- supporting_errorcode&#45;&gt;supporting_errorcodes -->
<g id="edge43" class="edge">
<title>supporting_errorcode&#45;&gt;supporting_errorcodes</title><style>.edge>path:hover{stroke-width:8}</style>
<path fill="none" stroke="black" d="M1361.07,-436.93C1393.21,-426.36 1440.81,-409.86 1481.08,-392.49 1486.56,-390.12 1492.26,-387.46 1497.83,-384.74"/>
<polygon fill="#b747c2" stroke="black" points="1499.62,-387.76 1507.01,-380.16 1496.5,-381.5 1499.62,-387.76"/>
</g>
<!-- supporting_errorcodes&#45;&gt;devops_supporting_tools_supporting_artifactHandling -->
<g id="edge44" class="edge">
<title>supporting_errorcodes&#45;&gt;devops_supporting_tools_supporting_artifactHandling</title><style>.edge>path:hover{stroke-width:8}</style>
<path fill="none" stroke="black" d="M1572.08,-268.51C1573.92,-224.4 1492.39,-248.52 1496.08,-204.52"/>
<path fill="none" stroke="black" d="M1548.14,-342.89C1558.17,-324.83 1570.98,-296.9 1572.08,-270.51"/>
</g>
<!-- supporting_errorcodes&#45;&gt;devops_supporting_tools_supporting_deploylist -->
<g id="edge45" class="edge">
<title>supporting_errorcodes&#45;&gt;devops_supporting_tools_supporting_deploylist</title><style>.edge>path:hover{stroke-width:8}</style>
<path fill="none" stroke="black" d="M1529.27,-342.26C1522.34,-323.03 1510.58,-293.69 1496.08,-270.51"/>
<path fill="none" stroke="black" d="M1496.08,-268.51C1487.38,-254.62 1485.83,-249.43 1472.08,-240.52 1429.17,-212.74 1299.31,-178.78 1212.53,-158.17"/>
<polygon fill="#b923c8" stroke="black" points="1213.24,-154.74 1202.7,-155.85 1211.63,-161.55 1213.24,-154.74"/>
</g>
<!-- supporting_errorcodes&#45;&gt;devops_supporting_tools_supporting_executeCommand -->
<g id="edge46" class="edge">
<title>supporting_errorcodes&#45;&gt;devops_supporting_tools_supporting_executeCommand</title><style>.edge>path:hover{stroke-width:8}</style>
<path fill="none" stroke="black" d="M1496.08,-268.51C1478.53,-240.48 1475.27,-232.78 1458.08,-204.52"/>
</g>
<!-- supporting_errorcodes&#45;&gt;devops_supporting_tools_supporting_generatezip -->
<g id="edge47" class="edge">
<title>supporting_errorcodes&#45;&gt;devops_supporting_tools_supporting_generatezip</title><style>.edge>path:hover{stroke-width:8}</style>
<path fill="none" stroke="black" d="M1572.08,-268.51C1574.88,-201.39 1649.55,-168.92 1713.61,-153.38"/>
<polygon fill="#b923c8" stroke="black" points="1714.43,-156.78 1723.38,-151.11 1712.85,-149.96 1714.43,-156.78"/>
</g>
<!-- supporting_generalConstants -->
<g id="node31" class="node">
<title>supporting_generalConstants</title><style>.edge>path:hover{stroke-width:8}</style>
<ellipse fill="#d522e7" stroke="black" cx="1610.08" cy="-449.7" rx="65.52" ry="21.43"/>
<text text-anchor="middle" x="1610.08" y="-452.7" font-family="Helvetica,sans-Serif" font-size="10.00" fill="#ffffff">supporting.</text>
<text text-anchor="middle" x="1610.08" y="-441.7" font-family="Helvetica,sans-Serif" font-size="10.00" fill="#ffffff">generalConstants</text>
</g>
<!-- supporting_generalConstants&#45;&gt;devops_supporting_tools_supporting_artifactHandling -->
<g id="edge48" class="edge">
<title>supporting_generalConstants&#45;&gt;devops_supporting_tools_supporting_artifactHandling</title><style>.edge>path:hover{stroke-width:8}</style>
<path fill="none" stroke="black" d="M1607.92,-428.42C1606.61,-411.23 1605.89,-386.02 1610.08,-364.5"/>
<path fill="none" stroke="black" d="M1610.08,-362.5C1620.63,-308.26 1621.34,-283.05 1586.08,-240.52 1558.58,-207.36 1492.48,-247.45 1496.08,-204.52"/>
</g>
<!-- supporting_generalConstants&#45;&gt;devops_supporting_tools_supporting_generalSettings -->
<g id="edge49" class="edge">
<title>supporting_generalConstants&#45;&gt;devops_supporting_tools_supporting_generalSettings</title><style>.edge>path:hover{stroke-width:8}</style>
<path fill="none" stroke="black" d="M1561.68,-435.21C1551.32,-432.68 1540.38,-430.27 1530.08,-428.49 1446.71,-414.08 1222.84,-437.29 1151.08,-392.49 1083.91,-350.55 1110.53,-299.84 1058.08,-240.52 1034.69,-214.07 1003.76,-189.32 978.28,-170.93"/>
<polygon fill="#d522e7" stroke="black" points="980.05,-167.89 969.87,-164.95 975.99,-173.6 980.05,-167.89"/>
</g>
<!-- supporting_generalConstants&#45;&gt;devops_supporting_tools_supporting_logging_customLogger -->
<g id="edge50" class="edge">
<title>supporting_generalConstants&#45;&gt;devops_supporting_tools_supporting_logging_customLogger</title><style>.edge>path:hover{stroke-width:8}</style>
<path fill="none" stroke="black" d="M1610.08,-362.5C1629.44,-248.89 1741.35,-197.65 1667.08,-109.54 1627.27,-62.32 1460.13,-46.16 1349.64,-40.64"/>
<polygon fill="#d522e7" stroke="black" points="1349.62,-37.14 1339.46,-40.15 1349.28,-44.13 1349.62,-37.14"/>
</g>
<!-- supporting_generalConstants&#45;&gt;supporting -->
<g id="edge51" class="edge">
<title>supporting_generalConstants&#45;&gt;supporting</title><style>.edge>path:hover{stroke-width:8}</style>
<path fill="none" stroke="black" d="M1561.21,-435.34C1550.98,-432.83 1540.22,-430.39 1530.08,-428.49 1403.31,-404.64 1363.88,-434.96 1242.08,-392.49 1236.2,-390.44 1230.26,-387.56 1224.7,-384.42"/>
<polygon fill="#d522e7" stroke="black" points="1226.13,-381.19 1215.76,-379 1222.49,-387.18 1226.13,-381.19"/>
</g>
<!-- supporting_generalConstants&#45;&gt;supporting_generalSettings -->
<g id="edge52" class="edge">
<title>supporting_generalConstants&#45;&gt;supporting_generalSettings</title><style>.edge>path:hover{stroke-width:8}</style>
<path fill="none" stroke="black" d="M1652.64,-433.45C1692.64,-419.12 1752.53,-397.66 1794.86,-382.49"/>
<polygon fill="#d522e7" stroke="black" points="1796.18,-385.74 1804.41,-379.07 1793.82,-379.15 1796.18,-385.74"/>
</g>
<!-- supporting_generalSettings&#45;&gt;devops_supporting_tools_supporting_filehandling -->
<g id="edge53" class="edge">
<title>supporting_generalSettings&#45;&gt;devops_supporting_tools_supporting_filehandling</title><style>.edge>path:hover{stroke-width:8}</style>
<path fill="none" stroke="black" d="M1859.19,-342.71C1886,-305.11 1944.66,-222.85 1978.55,-175.33"/>
<polygon fill="#9c46a4" stroke="black" points="1981.41,-177.34 1984.37,-167.17 1975.71,-173.28 1981.41,-177.34"/>
</g>
<!-- supporting_mask_password -->
<g id="node33" class="node">
<title>supporting_mask_password</title><style>.edge>path:hover{stroke-width:8}</style>
<ellipse fill="#ad53b6" stroke="black" cx="1313.08" cy="-363.5" rx="62.45" ry="21.43"/>
<text text-anchor="middle" x="1313.08" y="-366.5" font-family="Helvetica,sans-Serif" font-size="10.00" fill="#ffffff">supporting.</text>
<text text-anchor="middle" x="1313.08" y="-355.5" font-family="Helvetica,sans-Serif" font-size="10.00" fill="#ffffff">mask_password</text>
</g>
<!-- supporting_mask_password&#45;&gt;devops_supporting_tools_supporting_executeCommand -->
<g id="edge54" class="edge">
<title>supporting_mask_password&#45;&gt;devops_supporting_tools_supporting_executeCommand</title><style>.edge>path:hover{stroke-width:8}</style>
<path fill="none" stroke="black" d="M1318.06,-342.32C1327.22,-305.16 1346.9,-225.39 1358.66,-177.73"/>
<polygon fill="#ad53b6" stroke="black" points="1362.11,-178.33 1361.11,-167.78 1355.32,-176.65 1362.11,-178.33"/>
</g>
<!-- supporting_randomize&#45;&gt;devops_supporting_tools_supporting_filehandling -->
<g id="edge55" class="edge">
<title>supporting_randomize&#45;&gt;devops_supporting_tools_supporting_filehandling</title><style>.edge>path:hover{stroke-width:8}</style>
<path fill="none" stroke="black" d="M2076.76,-341.96C2075.87,-323.27 2075.31,-294.95 2078.08,-270.51"/>
</g>
<!-- zipfile&#45;&gt;devops_supporting_tools_supporting_generatezip -->
<g id="edge56" class="edge">
<title>zipfile&#45;&gt;devops_supporting_tools_supporting_generatezip</title><style>.edge>path:hover{stroke-width:8}</style>
<path fill="none" stroke="black" d="M1953.01,-431.78C1944.75,-409.24 1929.16,-368.28 1913.08,-334.5 1886.05,-277.74 1849.83,-214.49 1826.97,-175.86"/>
<polygon fill="#c04085" stroke="black" points="1829.86,-173.86 1821.74,-167.05 1823.84,-177.44 1829.86,-173.86"/>
</g>
<!-- zipfile&#45;&gt;shutil -->
<g id="edge57" class="edge">
<title>zipfile&#45;&gt;shutil</title><style>.edge>path:hover{stroke-width:8}</style>
<path fill="none" stroke="black" d="M1967.82,-422.42C1971.12,-412.48 1974.89,-401.16 1978.2,-391.18"/>
<polygon fill="#c04085" stroke="black" points="1964.44,-421.47 1964.61,-432.06 1971.09,-423.68 1964.44,-421.47"/>
<polygon fill="#c04085" stroke="black" points="1981.63,-391.98 1981.46,-381.39 1974.99,-389.77 1981.63,-391.98"/>
</g>
</g>
</svg>
